<svg width="143" height="80" viewBox="0 0 143 80" fill="none" xmlns="http://www.w3.org/2000/svg">
<path d="M92.0752 0.999964C79.4847 0.902773 66.9039 1.72682 54.4331 3.46552C48.3109 4.32161 42.223 5.39602 36.1691 6.68871C30.4146 7.74304 24.7528 9.2545 19.2372 11.2089C14.2431 12.9579 9.81638 16.0336 6.42945 20.1079C3.53551 23.8178 1.55638 28.1604 0.653157 32.7823C-0.275993 37.5209 -0.210572 42.4015 0.845266 47.1133C1.93346 51.8239 4.00711 56.2491 6.92897 60.0959C13.1775 68.1209 21.7634 73.996 31.4943 76.9052C43.0213 80.5522 55.4321 80.488 67.3561 79.1525C79.2802 77.817 91.3067 75.544 102.526 71.0496C112.689 67.1597 121.891 61.1098 129.5 53.3157C133.27 49.4629 136.424 45.049 138.849 40.2303C141.334 35.0938 142.794 29.2381 141.68 23.5366C141.09 20.9036 139.961 18.4221 138.365 16.2492C136.769 14.0763 134.74 12.2594 132.407 10.9135C127.438 7.85725 121.61 6.79144 115.859 6.56029C112.926 6.43188 109.98 6.56028 107.035 6.62448C106.355 6.62448 105.704 6.89507 105.223 7.37671C104.743 7.85835 104.473 8.51161 104.473 9.19275C104.473 9.8739 104.743 10.5272 105.223 11.0088C105.704 11.4904 106.355 11.761 107.035 11.761C109.98 11.6711 112.926 11.5684 115.859 11.6968C116.576 11.6968 117.281 11.761 117.998 11.8253L119.125 11.928H119.625C119.714 11.928 120.432 12.0435 119.932 11.928C121.322 12.1276 122.7 12.4106 124.056 12.7755C124.607 12.9296 125.145 13.0966 125.683 13.2763L126.541 13.5974L126.912 13.7515C127.425 13.9441 126.515 13.546 127.053 13.7515C128.094 14.227 129.103 14.7673 130.076 15.3694C130.563 15.6776 131.024 15.9987 131.485 16.3325C131.024 15.9473 131.946 16.6664 131.485 16.3325L131.792 16.5765L132.535 17.2443C132.926 17.6015 133.297 17.9787 133.649 18.3743L134.162 18.9779C133.957 18.6825 134.584 19.4658 134.162 18.9779C134.253 19.1158 134.351 19.2487 134.456 19.376C134.775 19.8401 135.07 20.3201 135.34 20.8142C135.481 21.071 135.622 21.3407 135.75 21.6104L135.916 21.9956C135.737 21.5847 135.916 21.9956 135.993 22.2011C136.197 22.7425 136.368 23.2957 136.505 23.8576C136.569 24.1273 136.633 24.4098 136.685 24.6923C136.736 24.9748 136.685 25.0518 136.787 25.2188C136.89 25.3857 136.787 24.7822 136.787 25.283C136.906 26.5643 136.906 27.854 136.787 29.1354C136.787 29.3023 136.672 30.1242 136.787 29.5463C136.787 29.8288 136.71 30.1242 136.659 30.4067C136.531 31.0744 136.39 31.6908 136.224 32.3586C135.88 33.6691 135.452 34.956 134.943 36.211C135.135 35.7102 134.802 36.5191 134.751 36.6347C134.7 36.7503 134.507 37.1741 134.379 37.4437C134.085 38.0601 133.777 38.6508 133.457 39.2415C132.23 41.4425 130.843 43.5499 129.307 45.5466C129.64 45.11 129.154 45.7392 129.051 45.8677L128.449 46.6125L127.169 48.0764C126.336 49.0009 125.491 49.9127 124.607 50.7859C122.839 52.55 120.97 54.2094 119.01 55.7555L118.664 56.0124C118.754 55.9482 119.061 55.7042 118.664 56.0124L117.896 56.603C117.371 56.9754 116.858 57.3607 116.32 57.7202C115.296 58.4394 114.258 59.1328 113.195 59.8005C111.069 61.1275 108.883 62.3431 106.638 63.4475C105.357 64.051 104.166 64.6289 102.898 65.1811L102.334 65.425H102.27L101.361 65.7975C100.682 66.08 99.9904 66.3496 99.2988 66.6065C96.6219 67.6209 93.8939 68.507 91.1274 69.2903C85.5878 70.8338 79.9588 72.0346 74.2723 72.8859L72.1975 73.1941L71.096 73.3482C70.5965 73.4124 71.0192 73.3482 71.096 73.3482L70.4812 73.438C69.034 73.6178 67.5867 73.7976 66.1394 73.9389C63.2278 74.2471 60.3118 74.4611 57.3917 74.5809C54.4715 74.6837 51.5513 74.6708 48.644 74.5167C47.1967 74.4268 45.7494 74.3112 44.3021 74.1572L43.2006 74.0159C43.111 74.0159 42.6883 73.9517 43.1366 74.0159L42.6499 73.9389C41.9071 73.8361 41.177 73.7206 40.4342 73.5921C37.7202 73.1093 35.0416 72.4443 32.4165 71.6017C31.3022 71.2293 30.2007 70.8313 29.1249 70.3946L28.715 70.2277L27.9722 69.9067L26.3328 69.149C24.2295 68.1153 22.2009 66.9353 20.2619 65.6177C19.788 65.2966 19.3269 64.9628 18.8786 64.6289L18.2382 64.1538C17.918 63.8969 18.7121 64.5262 18.2382 64.1538L17.854 63.8456C16.9575 63.1136 16.0737 62.3431 15.2925 61.547C14.5112 60.7508 13.6531 59.9161 12.8846 59.0429C12.526 58.6191 12.1545 58.1954 11.8087 57.7588C11.6807 57.5918 11.2708 57.0525 11.6038 57.5019L11.0147 56.7058C9.65736 54.8303 8.49438 52.8209 7.54376 50.7089L7.37725 50.3493C7.18513 49.9127 7.37725 50.3493 7.37725 50.452C7.30157 50.1853 7.19854 49.927 7.06984 49.6815C6.87772 49.155 6.69843 48.6414 6.53193 48.1021C6.20026 47.0739 5.92658 46.0278 5.71221 44.9688C5.60975 44.4551 5.52009 43.9414 5.43044 43.415C5.34078 42.8885 5.43044 43.8516 5.43044 43.1838C5.43044 42.8756 5.35361 42.5674 5.32799 42.2592C5.22754 41.1793 5.18478 40.0948 5.19991 39.0104C5.19991 37.9317 5.26394 36.853 5.39202 35.7744C5.39202 35.6588 5.39202 35.5304 5.39202 35.4148C5.28956 36.0697 5.39202 35.0167 5.39202 35.4148L5.50732 34.6828C5.60978 34.1435 5.71222 33.6042 5.8403 33.0648C6.07197 32.0218 6.36274 30.9928 6.71122 29.9829C6.87772 29.4949 7.06987 29.007 7.26198 28.5318C7.33883 28.3392 7.47972 28.2622 7.26198 28.6346C7.32325 28.5282 7.37469 28.4164 7.41567 28.3007C7.53094 28.031 7.659 27.7614 7.79989 27.4789C8.26136 26.5327 8.7789 25.615 9.34966 24.7308C9.63143 24.307 9.92597 23.8833 10.2334 23.4467C10.323 23.3183 10.5408 23.1385 10.1565 23.5366L10.3743 23.2541C10.5664 23.0101 10.7585 22.7789 10.9634 22.5606C11.6539 21.7571 12.3985 21.0019 13.192 20.3005L13.8196 19.7741C13.9277 19.7107 14.0268 19.6329 14.1141 19.5429C14.1141 19.5429 13.6403 19.8896 14.0245 19.6199C14.4087 19.3503 15.1387 18.8238 15.7151 18.4514C16.8391 17.7553 18.0071 17.1333 19.2116 16.5894L19.6343 16.3968C19.7496 16.3968 20.2107 16.1528 19.7496 16.3968L20.5949 16.05L22.5289 15.3438C25.0904 14.4706 27.7288 13.8028 30.3672 13.1479C36.1948 11.7225 42.0864 10.5026 48.0036 9.48812C49.4893 9.23129 50.975 9.00015 52.4479 8.76901L54.6252 8.44797L55.637 8.3067L56.1493 8.22965H56.4823C59.4623 7.84441 62.4508 7.50199 65.4478 7.20236C71.429 6.61166 77.4359 6.25211 83.4427 6.08517C86.3458 6.00812 89.2617 5.98244 92.1905 6.00812C92.8698 6.00812 93.5214 5.73754 94.0017 5.2559C94.4821 4.77425 94.752 4.121 94.752 3.43985C94.752 2.7587 94.4821 2.10545 94.0017 1.62381C93.5214 1.14216 92.8698 0.871582 92.1905 0.871582L92.0752 0.999964Z" fill="#0000FF"/>
</svg>
