<svg width="222" height="141" viewBox="0 0 222 141" fill="none" xmlns="http://www.w3.org/2000/svg">
<path d="M24.8626 140.162L64.2588 117.605L103.621 95.0481C116.749 87.4914 129.863 79.931 142.961 72.3669C156.059 64.8027 169.157 57.2197 182.255 49.6179C194.335 42.6026 206.786 35.8919 217.456 26.8014C218.741 25.7036 219.993 24.5757 221.212 23.4178C221.724 22.8853 222.008 22.1726 222 21.4333C221.993 20.694 221.695 19.9872 221.172 19.4651C220.648 18.9431 219.941 18.6475 219.201 18.6422C218.462 18.6368 217.75 18.9221 217.219 19.4365C207.44 28.7977 195.474 35.4182 183.8 42.208C170.762 49.7872 157.721 57.3438 144.675 64.8779C131.63 72.412 118.516 79.9536 105.335 87.5027C92.2748 95.0218 79.2105 102.541 66.1423 110.06L26.9267 132.617L22.0205 135.425C18.8738 137.23 21.7159 142.102 24.8626 140.298V140.162Z" fill="#0000FF"/>
<path d="M4.41223 121.666L43.7971 99.1084L83.1368 76.4498C96.2575 68.9307 109.371 61.3703 122.476 53.7686C135.582 46.1668 148.68 38.5838 161.771 31.0196C173.839 24.0043 186.302 17.2936 196.972 8.20306C198.257 7.10528 199.509 5.97742 200.727 4.81949C201.257 4.29003 201.554 3.57192 201.554 2.82316C201.554 2.0744 201.257 1.35635 200.727 0.826894C200.198 0.29744 199.48 0 198.731 0C197.982 0 197.264 0.29744 196.735 0.826894C186.956 10.1881 174.978 16.8199 163.305 23.5984C150.274 31.1776 137.236 38.7342 124.191 46.2683C111.145 53.8024 98.032 61.3628 84.8511 68.9495C71.7905 76.4685 58.7262 83.9876 45.6581 91.5066L6.44243 114.064L1.53627 116.872C-1.61045 118.677 1.22049 123.549 4.3785 121.745L4.41223 121.666Z" fill="#0000FF"/>
<path d="M49.3051 123.324C46.9215 121.82 44.523 120.316 42.1093 118.812C40.0115 117.549 37.9137 116.308 35.8046 115.056C33.6956 113.804 31.8233 112.699 29.8382 111.481C27.8532 110.263 25.7554 108.921 23.7478 107.59C21.4921 106.056 19.2363 104.454 16.9806 102.819L16.0558 102.131C15.7467 101.929 15.3875 101.815 15.0182 101.804C14.6512 101.734 14.2732 101.747 13.9121 101.843C13.5509 101.938 13.2158 102.114 12.9317 102.357C12.6271 102.557 12.3755 102.828 12.1985 103.146C11.8205 103.806 11.7191 104.589 11.9166 105.323L12.1985 106C12.4505 106.412 12.7989 106.756 13.2136 107.003C15.4693 108.695 17.7739 110.338 20.1274 111.932C22.15 113.301 24.1989 114.624 26.2742 115.902C28.2479 117.132 30.233 118.316 32.2293 119.489C34.2256 120.662 36.3911 121.948 38.4551 123.199C40.8236 124.628 43.1695 126.087 45.4929 127.576L46.4629 128.196C46.777 128.398 47.1387 128.515 47.5118 128.534C47.8807 128.637 48.2708 128.637 48.6397 128.534C49.3339 128.305 49.9302 127.848 50.3315 127.237C50.7089 126.581 50.8103 125.802 50.6134 125.072L50.3315 124.395C50.0863 123.975 49.7366 123.625 49.3164 123.38L49.3051 123.324Z" fill="#0000FF"/>
<path d="M72.3246 110.556C69.9411 109.052 67.5425 107.549 65.1289 106.045C63.0311 104.782 60.9294 103.53 58.824 102.289C56.8277 101.105 54.8428 99.9205 52.8578 98.7137C50.8727 97.5069 48.7749 96.1534 46.7673 94.8113C44.5116 93.3075 42.2559 91.721 40.0002 90.0517L39.0865 89.3638C38.7724 89.163 38.4103 89.05 38.0377 89.0366C37.6707 88.9665 37.2926 88.9797 36.9315 89.0754C36.5703 89.1711 36.2353 89.3467 35.9512 89.5893C35.6443 89.7832 35.395 90.0558 35.2293 90.3788C35.0379 90.7038 34.9133 91.0638 34.863 91.4376C34.8126 91.8114 34.8375 92.1915 34.9361 92.5556L35.2293 93.221C35.4705 93.6405 35.8164 93.9902 36.2332 94.236C38.4889 95.9278 40.7935 97.5708 43.1469 99.1649C45.162 100.526 47.2109 101.849 49.2937 103.135C51.3765 104.421 53.3615 105.616 55.2488 106.721C57.3241 107.951 59.4106 109.18 61.4746 110.432C63.8431 111.861 66.1891 113.319 68.5124 114.808L69.4824 115.429C69.7951 115.632 70.1581 115.746 70.5312 115.756C70.9 115.859 71.2903 115.859 71.6591 115.756C72.0171 115.672 72.3474 115.497 72.6179 115.248C72.9278 115.054 73.1807 114.782 73.3509 114.459C73.7289 113.799 73.8303 113.016 73.6328 112.282L73.3509 111.616C73.1058 111.196 72.7562 110.846 72.3359 110.601L72.3246 110.556Z" fill="#0000FF"/>
<path d="M94.9926 98.2851C92.6241 96.7437 90.2255 95.2399 87.7969 93.7737C85.7103 92.5105 83.6013 91.2585 81.5035 90.0179C79.4057 88.7772 77.5108 87.6494 75.5371 86.4426C73.5633 85.2358 71.4429 83.8823 69.4353 82.5402C67.1796 81.0364 64.9239 79.4499 62.6682 77.7806L61.7547 77.0927C61.4384 76.8949 61.0779 76.7786 60.7057 76.7542C60.3365 76.6535 59.9471 76.6535 59.5778 76.7542C59.2218 76.8429 58.8927 77.0172 58.6192 77.2618C58.3151 77.4589 58.0665 77.7308 57.8973 78.0513C57.7081 78.3751 57.5857 78.7336 57.5373 79.1055C57.4889 79.4774 57.5154 79.8553 57.6154 80.2168L57.8973 80.8935C58.1395 81.3161 58.4899 81.6664 58.9124 81.9086C61.1682 83.6004 63.469 85.2433 65.8149 86.8373C67.83 88.1982 69.8827 89.5216 71.973 90.8074C73.9355 92.0255 75.9318 93.2097 77.9168 94.394C79.9019 95.5782 82.0787 96.8527 84.1539 98.1047C86.5111 99.5258 88.8684 100.981 91.1917 102.481L92.1504 103.101C92.4645 103.302 92.8268 103.415 93.1994 103.428C93.5685 103.529 93.9581 103.529 94.3272 103.428C95.0203 103.203 95.614 102.744 96.0077 102.131C96.1979 101.805 96.3207 101.445 96.3691 101.071C96.4175 100.697 96.3906 100.318 96.2897 99.9543L96.0077 99.2889C95.7656 98.8664 95.4151 98.516 94.9926 98.2738V98.2851Z" fill="#0000FF"/>
<path d="M118.533 84.435C116.164 82.9312 113.766 81.4274 111.337 79.9236C109.25 78.6491 107.141 77.4084 105.032 76.1565C102.923 74.9046 101.051 73.7993 99.0771 72.5812C97.1033 71.3631 94.9829 70.0322 92.9753 68.6901C90.7196 67.1863 88.4639 65.596 86.2082 63.9192L85.2947 63.2425C84.9815 63.0382 84.6193 62.9214 84.2457 62.9041C83.8758 62.8086 83.4878 62.8086 83.1179 62.9041C82.4248 63.1296 81.8311 63.5879 81.4374 64.2012C81.2478 64.527 81.1252 64.8873 81.0768 65.2611C81.0284 65.6349 81.0551 66.0146 81.1554 66.378L81.4374 67.0547C81.6821 67.4685 82.0274 67.8138 82.4412 68.0585C84.6969 69.7653 87.0015 71.4082 89.355 72.9872C91.3701 74.3557 93.4189 75.6827 95.5017 76.9685C97.4755 78.1866 99.4605 79.3709 101.457 80.5552L107.694 84.2545C110.047 85.6906 112.393 87.1493 114.732 88.6306L115.69 89.2509C116.007 89.4487 116.367 89.5649 116.739 89.5892C117.109 89.6899 117.498 89.6899 117.867 89.5892C118.224 89.5093 118.554 89.3383 118.826 89.093C119.13 88.8915 119.379 88.616 119.548 88.2922C119.737 87.9684 119.859 87.61 119.908 87.238C119.956 86.8661 119.93 86.4883 119.83 86.1268L119.548 85.45C119.299 85.0325 118.95 84.6836 118.533 84.435Z" fill="#0000FF"/>
<path d="M139.97 73.8444C137.586 72.3406 135.184 70.8368 132.763 69.333C130.676 68.0698 128.567 66.8178 126.469 65.5772C124.371 64.3365 122.477 63.2087 120.503 62.0019C118.529 60.7951 116.409 59.4416 114.401 58.0995C112.145 56.5957 109.89 55.0092 107.634 53.3399L106.72 52.6519C106.406 52.4511 106.044 52.3382 105.672 52.3248C105.302 52.2236 104.913 52.2236 104.544 52.3248C104.188 52.4135 103.859 52.5878 103.585 52.8324C103.281 53.0295 103.032 53.3014 102.863 53.6219C102.673 53.9475 102.55 54.3078 102.502 54.6817C102.453 55.0556 102.48 55.4354 102.581 55.7987L102.863 56.4641C103.105 56.8866 103.456 57.237 103.878 57.4792C106.134 59.171 108.39 60.8627 110.781 62.4079C112.8 63.7726 114.864 65.0922 116.939 66.378C119.014 67.6637 120.898 68.7916 122.883 69.9646C124.868 71.1375 127.044 72.4233 129.12 73.6752C131.477 75.1076 133.834 76.5625 136.158 78.0513L137.116 78.6716C137.43 78.8724 137.793 78.9854 138.165 78.9987C138.534 79.1 138.924 79.1 139.293 78.9987C139.65 78.9127 139.98 78.7381 140.252 78.4912C140.556 78.294 140.804 78.0222 140.974 77.7017C141.164 77.3761 141.287 77.0157 141.335 76.6418C141.383 76.2679 141.356 75.8882 141.256 75.5249L140.974 74.8594C140.732 74.4399 140.386 74.0902 139.97 73.8444Z" fill="#0000FF"/>
<path d="M159.144 60.7275C156.761 59.2236 154.362 57.7198 151.949 56.216C149.851 54.9528 147.749 53.7009 145.644 52.4602C143.648 51.3324 141.662 50.0918 139.689 48.8849C137.715 47.6781 135.595 46.3247 133.587 44.9825C131.331 43.4787 129.076 41.8922 126.82 40.223L125.906 39.535C125.592 39.3342 125.23 39.2213 124.857 39.2079C124.488 39.1066 124.099 39.1066 123.73 39.2079C123.372 39.2939 123.043 39.4685 122.771 39.7155C122.464 39.9094 122.215 40.182 122.049 40.505C121.667 41.1632 121.562 41.9459 121.756 42.6817L122.049 43.3471C122.29 43.7666 122.636 44.1164 123.053 44.3622C125.309 46.054 127.613 47.6969 129.967 49.291C131.982 50.6594 134.031 51.9828 136.113 53.261C138.196 54.5393 140.181 55.7348 142.068 56.8476C144.144 58.077 146.23 59.3063 148.294 60.5582C150.663 61.9869 153.009 63.4456 155.332 64.9343L156.302 65.5547C156.615 65.757 156.978 65.8701 157.351 65.8818C157.72 65.9853 158.11 65.9853 158.479 65.8818C158.837 65.7981 159.167 65.6232 159.438 65.3742C159.747 65.1806 160.001 64.9081 160.171 64.5847C160.361 64.2592 160.484 63.8988 160.532 63.5249C160.581 63.151 160.554 62.7712 160.453 62.408L160.171 61.7425C159.929 61.32 159.578 60.9696 159.156 60.7275H159.144Z" fill="#0000FF"/>
<path d="M184.442 45.8736C182.062 44.3397 179.671 42.8396 177.246 41.3621C175.159 40.0989 173.05 38.847 170.941 37.6064C168.832 36.3657 166.96 35.2492 164.986 34.0311C163.012 32.813 160.892 31.4708 158.884 30.1287C156.629 28.606 154.373 27.0044 152.117 25.3691L151.204 24.6811C150.89 24.4803 150.527 24.3674 150.155 24.354C149.786 24.2528 149.396 24.2528 149.027 24.354C148.67 24.4401 148.34 24.6146 148.068 24.8616C147.764 25.0583 147.515 25.3302 147.346 25.651C146.965 26.3092 146.859 27.092 147.053 27.8278L147.346 28.4932C147.588 28.9127 147.933 29.2625 148.35 29.5083C150.606 31.2001 152.91 32.843 155.264 34.4371C157.279 35.8055 159.328 37.1289 161.411 38.4071C163.494 39.6853 165.479 40.8809 167.366 41.9937C169.441 43.2344 171.528 44.4524 173.592 45.7044C175.96 47.133 178.31 48.5917 180.641 50.0805L181.6 50.7008C182.082 50.9894 182.642 51.1226 183.203 51.0822C183.764 51.0419 184.299 50.8299 184.735 50.4752C185.039 50.278 185.288 50.0062 185.457 49.6857C185.646 49.3618 185.768 49.0034 185.817 48.6315C185.865 48.2595 185.839 47.8817 185.739 47.5202L185.457 46.8435C185.215 46.421 184.864 46.0706 184.442 45.8284V45.8736Z" fill="#0000FF"/>
<path d="M205.985 34.1664C203.601 32.6626 201.203 31.1588 198.789 29.655C196.691 28.3918 194.59 27.1398 192.484 25.8992C190.488 24.7713 188.503 23.5307 186.518 22.3239C184.533 21.1171 182.435 19.7636 180.427 18.4215C178.172 16.8876 175.916 15.2974 173.66 13.662L172.735 12.9739C172.426 12.7715 172.067 12.6583 171.698 12.6469C171.331 12.5767 170.953 12.59 170.592 12.6856C170.23 12.7813 169.895 12.9569 169.611 13.1995C169.307 13.3996 169.055 13.6705 168.878 13.989C168.5 14.6488 168.399 15.4314 168.596 16.1658L168.878 16.8312C169.127 17.2488 169.476 17.5976 169.893 17.8463C172.149 19.5381 174.454 21.181 176.807 22.775C178.822 24.1435 180.871 25.4669 182.954 26.7451C185.037 28.0233 187.022 29.2189 188.909 30.3317C190.984 31.5723 193.071 32.7904 195.135 34.0423C197.503 35.4709 199.849 36.9296 202.173 38.4184L203.143 39.0388C203.455 39.2427 203.818 39.3559 204.191 39.3658C204.56 39.4694 204.95 39.4694 205.319 39.3658C206.013 39.1369 206.61 38.6797 207.011 38.0688C207.389 37.409 207.49 36.6263 207.293 35.892L207.011 35.2266C206.766 34.8063 206.416 34.4566 205.996 34.2115L205.985 34.1664Z" fill="#0000FF"/>
</svg>
