<svg width="275" height="10" viewBox="0 0 275 10" fill="none" xmlns="http://www.w3.org/2000/svg">
<g clip-path="url(#clip0_3_185)">
<path d="M2.00997 7.44003H19.89C20.4195 7.43267 20.9267 7.22548 21.31 6.86002C21.6629 6.46877 21.8681 5.96651 21.89 5.44003C21.8904 4.91189 21.6819 4.40504 21.31 4.03006C20.9277 3.66178 20.4207 3.45108 19.89 3.44003H2.00997C1.47865 3.44809 0.970568 3.65923 0.589976 4.03006C0.400631 4.20466 0.259443 4.42502 0.179988 4.67001C0.0542531 4.90641 -0.00454203 5.17267 0.00997457 5.44003C0.00845278 5.70325 0.0589134 5.96418 0.158443 6.20786C0.257972 6.45153 0.404614 6.67314 0.589976 6.86002C0.971571 7.22806 1.47983 7.43568 2.00997 7.44003Z" fill="#0000FF"/>
<path d="M51.3296 9.95004L52.7396 9.75003L52.2096 9.82004C55.038 9.43875 57.8861 9.2217 60.7396 9.17001H63.1496C63.4165 9.17934 63.6814 9.12086 63.9196 9.00003C64.1595 8.9055 64.3774 8.76259 64.5598 8.58023C64.7421 8.39787 64.885 8.17997 64.9796 7.94003C65.1004 7.70186 65.1589 7.43692 65.1496 7.17001C65.1498 6.9061 65.0978 6.64481 64.9965 6.40109C64.8952 6.15738 64.7467 5.93609 64.5596 5.75003C64.1783 5.38771 63.6754 5.18085 63.1496 5.17001C59.9189 5.11822 56.6884 5.28191 53.4796 5.66C52.4096 5.78 51.3296 5.93006 50.2696 6.09006C50.0146 6.14663 49.7797 6.271 49.5896 6.45004C49.3722 6.59038 49.1934 6.7829 49.0696 7.01004C48.9306 7.23717 48.8483 7.49441 48.8296 7.76004C48.7599 8.01877 48.7599 8.29129 48.8296 8.55002C48.973 9.05218 49.3019 9.48111 49.7496 9.75003L50.2296 9.95004C50.5771 10.0402 50.942 10.0402 51.2896 9.95004H51.3296Z" fill="#0000FF"/>
<path d="M89.2983 8.26004L95.2983 8.09006L101.298 7.93002L104.678 7.83005C105.205 7.82416 105.71 7.61658 106.088 7.25003C106.278 7.07177 106.419 6.84803 106.498 6.60001C106.629 6.36517 106.691 6.09848 106.678 5.83005C106.678 5.29961 106.468 4.79087 106.093 4.4158C105.717 4.04073 105.209 3.83005 104.678 3.83005L98.6783 4.00003L92.6783 4.16L89.2983 4.26004C88.7714 4.26593 88.2668 4.47351 87.8883 4.84006C87.6986 5.01831 87.5575 5.242 87.4783 5.49002C87.3486 5.72524 87.2864 5.9917 87.2983 6.26004C87.3079 6.7881 87.519 7.29249 87.8883 7.67001C88.2617 8.0456 88.7687 8.25781 89.2983 8.26004Z" fill="#0000FF"/>
<path d="M123.368 8.21005L129.178 7.91L134.988 7.61002L138.278 7.44003C138.545 7.44935 138.81 7.39088 139.048 7.27005C139.288 7.17552 139.506 7.03261 139.688 6.85025C139.871 6.66789 140.014 6.44999 140.108 6.21005C140.229 5.97188 140.287 5.70694 140.278 5.44003C140.278 4.9096 140.067 4.40092 139.692 4.02585C139.317 3.65078 138.809 3.44003 138.278 3.44003L132.468 3.74002L126.658 4.04001L123.368 4.21005C123.101 4.19939 122.836 4.25794 122.598 4.38004C122.358 4.47457 122.14 4.61748 121.958 4.79984C121.776 4.98219 121.633 5.20009 121.538 5.44003C121.417 5.67821 121.359 5.94314 121.368 6.21005C121.368 6.47396 121.42 6.73526 121.521 6.97897C121.622 7.22269 121.771 7.44398 121.958 7.63004C122.333 8.00196 122.84 8.21047 123.368 8.21005Z" fill="#0000FF"/>
<path d="M153.181 7.02005H166.811C167.342 7.009 167.849 6.7983 168.231 6.43002C168.42 6.25543 168.562 6.035 168.641 5.79001C168.762 5.55183 168.82 5.28696 168.811 5.02005C168.813 4.75684 168.762 4.4959 168.663 4.25223C168.563 4.00855 168.416 3.78689 168.231 3.60001C167.848 3.23454 167.341 3.02742 166.811 3.02005H153.181C152.654 3.02594 152.15 3.23346 151.771 3.60001C151.578 3.77553 151.436 4.00022 151.361 4.25003C151.231 4.48525 151.169 4.75171 151.181 5.02005C151.181 5.55048 151.392 6.05916 151.767 6.43423C152.142 6.80931 152.651 7.02005 153.181 7.02005Z" fill="#0000FF"/>
<path d="M183.851 7.02005H192.361C192.893 7.01098 193.4 6.8 193.781 6.43002C193.971 6.25543 194.112 6.035 194.191 5.79001C194.317 5.55361 194.376 5.28741 194.361 5.02005C194.363 4.75684 194.313 4.4959 194.213 4.25223C194.113 4.00855 193.967 3.78689 193.781 3.60001C193.399 3.23283 192.891 3.02542 192.361 3.02005H183.851C183.321 3.02441 182.813 3.23196 182.431 3.60001C182.242 3.77826 182.101 4.00201 182.021 4.25003C181.891 4.48449 181.831 4.75227 181.851 5.02005C181.851 5.5482 182.06 6.05504 182.431 6.43002C182.812 6.80085 183.32 7.01199 183.851 7.02005Z" fill="#0000FF"/>
<path d="M214.511 6.17001H226.001C226.532 6.16195 227.04 5.95088 227.421 5.58005C227.608 5.40378 227.749 5.18391 227.831 4.94003C227.961 4.70536 228.02 4.43775 228.001 4.17001C228.002 3.9068 227.952 3.64587 227.852 3.40219C227.753 3.15852 227.606 2.93691 227.421 2.75003C227.039 2.38199 226.531 2.17437 226.001 2.17001H214.511C213.981 2.17539 213.473 2.38286 213.091 2.75003C212.901 2.92829 212.76 3.15203 212.681 3.40005C212.553 3.63572 212.494 3.90249 212.511 4.17001C212.51 4.69816 212.719 5.20506 213.091 5.58005C213.471 5.95088 213.979 6.16195 214.511 6.17001Z" fill="#0000FF"/>
<path d="M252.409 5.74002H263.909C264.438 5.73779 264.945 5.52564 265.319 5.15006C265.511 4.97827 265.653 4.75688 265.729 4.51004C265.858 4.27482 265.921 4.00836 265.909 3.74002C265.909 3.20959 265.698 2.70091 265.323 2.32584C264.948 1.95076 264.439 1.74002 263.909 1.74002H252.409C252.145 1.73981 251.883 1.79184 251.64 1.8931C251.396 1.99436 251.175 2.14288 250.989 2.33005C250.799 2.50464 250.658 2.72507 250.579 2.97006C250.452 3.2061 250.393 3.47258 250.409 3.74002C250.408 4.26817 250.617 4.77507 250.989 5.15006C251.37 5.52003 251.878 5.73095 252.409 5.74002Z" fill="#0000FF"/>
</g>
<defs>
<clipPath id="clip0_3_185">
<rect width="275" height="10" fill="white"/>
</clipPath>
</defs>
</svg>
