<svg width="68" height="102" viewBox="0 0 68 102" fill="none" xmlns="http://www.w3.org/2000/svg">
<path d="M28.4802 2.07903C22.8766 0.0399652 16.4528 1.45814 11.6541 4.7927C9.291 6.45742 7.20138 8.47981 5.46028 10.7872C3.69864 13.0605 2.28781 15.5849 1.27484 18.2766C0.222184 20.9551 -0.187408 23.8432 0.0789929 26.7088C0.24791 28.2217 0.637904 29.7016 1.23651 31.1012C1.73328 32.2401 2.37203 33.3115 3.13759 34.2901C6.27284 38.3453 11.1252 40.8672 16.0236 42.0861C21.4336 43.3998 27.071 43.4706 32.5124 42.2931C37.9368 41.1373 43.0242 38.7536 47.3837 35.325C49.4724 33.6795 51.284 31.71 52.7497 29.4914C54.1976 27.362 55.1629 24.942 55.5783 22.4007C55.7927 21.0086 55.7927 19.592 55.5783 18.1999C55.3613 16.8827 54.9206 15.6123 54.2752 14.4437C53.0026 12.2242 51.1948 10.3585 49.0165 9.01648C46.8557 7.67578 44.5387 6.60481 42.1174 5.82755C39.2501 4.85938 36.3361 4.03559 33.3863 3.35923C27.1893 1.9097 20.8713 1.03718 14.5134 0.752886C12.9803 0.683895 11.4472 0.653229 9.91403 0.653229C9.50742 0.653229 9.11746 0.814777 8.82995 1.10229C8.54243 1.38981 8.3809 1.77975 8.3809 2.18636C8.3809 2.59297 8.54243 2.98295 8.82995 3.27047C9.11746 3.55799 9.50742 3.71949 9.91403 3.71949C13.4345 3.71691 16.9528 3.8986 20.4543 4.26377C21.4585 4.36342 22.4627 4.48605 23.4592 4.62403L23.053 4.56274C28.8796 5.34447 34.6256 6.63989 40.224 8.43389C41.4505 8.82483 42.6617 9.26176 43.8499 9.76003L43.4896 9.60671C44.9903 10.2352 46.4277 11.0052 47.7824 11.9064L48.2346 12.2284L48.4723 12.4047L48.5873 12.4967L48.4799 12.4124C48.7866 12.6577 49.0779 12.9106 49.3691 13.1789C49.6604 13.4472 49.9211 13.7155 50.1817 13.9992L50.542 14.4131C50.6033 14.4821 50.657 14.5587 50.7183 14.6354C50.7796 14.712 50.6187 14.4974 50.6187 14.4974C50.6581 14.5432 50.6939 14.5919 50.726 14.643C51.2547 15.3549 51.6972 16.1268 52.0445 16.9427L51.8912 16.5825C52.2607 17.4375 52.5184 18.3367 52.6577 19.2578L52.6041 18.8515C52.7399 19.8691 52.7399 20.9002 52.6041 21.9177L52.6577 21.5115C52.474 22.8092 52.1209 24.0771 51.6075 25.283L51.7608 24.915C51.2655 26.068 50.6623 27.1717 49.9594 28.2113L49.4075 28.9778L49.2618 29.1695C49.0779 29.4148 49.4918 28.8782 49.3078 29.1158L49.0089 29.4837C48.6026 29.982 48.181 30.4573 47.7364 30.9249C47.2918 31.3925 46.8395 31.8218 46.3642 32.2434C46.1342 32.4504 45.8966 32.6573 45.6513 32.8566L45.3447 33.102L45.1607 33.2476C44.1034 34.0449 43.0002 34.7795 41.8568 35.4476C40.5691 36.1982 39.2352 36.8664 37.863 37.4484L38.2309 37.295C35.2837 38.5197 32.1884 39.3522 29.0245 39.7711L29.4384 39.7174C26.3171 40.1352 23.154 40.1352 20.0327 39.7174L20.439 39.7711C17.8488 39.4368 15.3132 38.7668 12.896 37.778L13.2562 37.9313C11.6007 37.2427 10.0314 36.3629 8.58021 35.3097L8.3119 35.1104L8.44222 35.21L8.32724 35.118L7.80598 34.6888C7.46102 34.4051 7.13139 34.0985 6.8171 33.7842C6.50281 33.4699 6.21919 33.1633 5.93556 32.8413L5.5446 32.3584C5.47561 32.274 5.37596 32.1284 5.64426 32.4887L5.55994 32.3737L5.33764 32.0747C4.75983 31.2745 4.27141 30.4134 3.88116 29.5068L4.03447 29.8747C3.58532 28.7948 3.27868 27.661 3.12226 26.5018L3.17592 26.9158C3.0073 25.5924 3.0073 24.253 3.17592 22.9296L3.12226 23.3436C3.38066 21.5388 3.87551 19.7759 4.59407 18.1003L4.44075 18.4682C4.94082 17.2879 5.53024 16.1476 6.20385 15.057C6.52581 14.5281 6.8631 14.0068 7.22338 13.5239C7.39203 13.2786 7.56067 13.0409 7.73698 12.8109L8.01294 12.443C8.15859 12.2437 7.93629 12.5427 7.92096 12.558L8.12793 12.2897C8.90156 11.3322 9.7363 10.4258 10.6269 9.57606C11.0715 9.15445 11.5238 8.74815 11.9991 8.3572L12.321 8.0966L12.482 7.97392C12.643 7.8436 12.1601 8.21157 12.3977 8.03526L13.1643 7.46801C14.3056 6.67505 15.5227 5.99715 16.7978 5.44426L16.4298 5.59758C17.9194 4.97262 19.4833 4.54236 21.0829 4.31743L20.6689 4.3711C22.1168 4.18332 23.5828 4.18332 25.0307 4.3711L24.6168 4.31743C25.6634 4.46221 26.6914 4.71921 27.683 5.084C27.8817 5.13837 28.0893 5.15213 28.2935 5.12447C28.4976 5.09681 28.6941 5.02829 28.8712 4.923C29.2131 4.72079 29.4632 4.39375 29.5688 4.01079C29.6771 3.61944 29.6257 3.2011 29.426 2.84756C29.2262 2.49402 28.8944 2.2342 28.5032 2.12507L28.4802 2.07903Z" fill="#0000FF"/>
<path d="M16.0945 16.0842C16.027 16.3191 15.9859 16.5608 15.9718 16.8048C15.9602 16.9169 15.9602 17.0299 15.9718 17.1421C15.9888 17.3847 16.0247 17.6256 16.0791 17.8627C16.144 18.0894 16.2287 18.31 16.3321 18.5219C16.4801 18.841 16.6795 19.1336 16.9224 19.3881C17.0876 19.5573 17.27 19.7089 17.4666 19.8404C17.5552 19.9105 17.6502 19.9721 17.7503 20.0244C17.9833 20.1589 18.2477 20.2298 18.5168 20.2298C18.7859 20.2298 19.0503 20.1589 19.2834 20.0244C19.7058 19.7455 20.0553 19.3697 20.3029 18.9282C20.5449 18.4774 20.6763 17.9756 20.6862 17.464C20.6944 17.2593 20.6495 17.056 20.5559 16.8738C20.4922 16.6855 20.3813 16.5166 20.2339 16.3832C20.1027 16.2333 19.9331 16.122 19.7433 16.0612C19.5608 15.9686 19.3577 15.9237 19.1531 15.9309C18.9508 15.9307 18.7504 15.9706 18.5636 16.0482C18.3768 16.1259 18.2072 16.2397 18.0645 16.3832C17.7836 16.6734 17.6245 17.0601 17.6199 17.464C17.6237 17.533 17.6237 17.6021 17.6199 17.671L17.6736 17.2648C17.6512 17.3901 17.6178 17.5132 17.5739 17.6327L17.7273 17.2648C17.675 17.3914 17.6054 17.51 17.5203 17.6173L17.7579 17.3107C17.6804 17.4113 17.5902 17.5015 17.4896 17.579L17.7963 17.3414H17.7503H19.2834C19.1804 17.2929 19.0828 17.2338 18.9921 17.1651L19.3064 17.4027C19.1815 17.306 19.0706 17.1925 18.9768 17.0654L19.2144 17.3797C19.1155 17.2457 19.0308 17.1018 18.9614 16.9504L19.1224 17.3107C19.0533 17.1493 19.0068 16.979 18.9844 16.8048L19.0381 17.2111C19.0188 17.0558 19.0188 16.8987 19.0381 16.7434L18.9844 17.1498C18.9844 17.0578 18.9844 16.9658 19.0457 16.8738C19.1404 16.4722 19.0859 16.05 18.8924 15.6856C18.8002 15.512 18.6657 15.3644 18.5015 15.2563C18.3523 15.1255 18.1733 15.0334 17.9802 14.988C17.782 14.9325 17.5747 14.9175 17.3705 14.9438C17.1664 14.9702 16.9697 15.0373 16.792 15.1414C16.4548 15.3488 16.2063 15.6737 16.0945 16.0536V16.0842Z" fill="#0000FF"/>
<path d="M33.6241 14.8577C33.5898 15.0272 33.5667 15.1988 33.5551 15.3713C33.5513 15.4223 33.5513 15.4736 33.5551 15.5246C33.5551 15.5706 33.5551 15.6089 33.5551 15.6549C33.5656 15.8306 33.5913 16.0049 33.6317 16.1762C33.6889 16.3824 33.7659 16.5827 33.8617 16.7741C33.9057 16.8585 33.9543 16.9404 34.0073 17.0194C34.1276 17.1973 34.2636 17.364 34.4136 17.5177C34.5726 17.6679 34.7445 17.8038 34.9272 17.924C35.0021 17.9748 35.0817 18.0184 35.1648 18.0543C35.3599 18.1558 35.5656 18.2355 35.7781 18.2919C35.9544 18.2919 36.1307 18.3455 36.3147 18.3685H36.4603C36.6459 18.3607 36.8305 18.3376 37.0123 18.2996C37.0631 18.3066 37.1147 18.3066 37.1656 18.2996C37.5498 18.1882 37.8782 17.9365 38.0855 17.5944C38.1931 17.4236 38.2564 17.2285 38.2694 17.0271C38.3227 16.8261 38.3227 16.6148 38.2694 16.4138C38.162 16.0296 37.909 15.7023 37.5642 15.5016C37.3876 15.3986 37.1922 15.332 36.9894 15.3057C36.7867 15.2794 36.5808 15.2939 36.3837 15.3483H36.1921L36.5983 15.2947C36.4993 15.3101 36.3984 15.3101 36.2994 15.2947L36.7057 15.3483C36.6006 15.332 36.4977 15.3037 36.399 15.264L36.767 15.4173C36.6455 15.3676 36.5318 15.3005 36.4297 15.218L36.7363 15.4556C36.6383 15.3806 36.5506 15.293 36.4757 15.195L36.7133 15.5016C36.6359 15.4071 36.5738 15.3011 36.5293 15.1873L36.6827 15.5553C36.6394 15.4552 36.611 15.3493 36.5983 15.241L36.652 15.6549C36.6367 15.561 36.6367 15.4652 36.652 15.3713L36.5907 15.7776V15.6703C36.6403 15.4715 36.6403 15.2635 36.5907 15.0647C36.5763 14.861 36.5132 14.6638 36.4067 14.4897C36.3117 14.3156 36.1747 14.168 36.0081 14.0605C35.8623 13.9232 35.6822 13.8279 35.4868 13.7845L35.0805 13.7308C34.8113 13.7313 34.5469 13.8027 34.314 13.9378C33.9723 14.1457 33.7208 14.4738 33.6087 14.8577H33.6241Z" fill="#0000FF"/>
<path d="M20.7609 26.0496C21.0471 26.5943 21.3887 27.1081 21.7804 27.5827C22.082 27.9749 22.4237 28.3346 22.8 28.6559C23.7315 29.4844 24.8179 30.1201 25.9965 30.5263C26.4645 30.6896 26.9471 30.8077 27.4377 30.8789C29.3368 31.1781 31.2819 30.8696 32.9953 29.9974C33.4523 29.7872 33.8865 29.5303 34.2908 29.2308C34.8005 28.8613 35.2706 28.44 35.6936 27.9737C35.7779 27.8817 35.8622 27.782 35.9389 27.6824C36.2157 27.3857 36.3762 26.9993 36.3912 26.5938C36.3983 26.3892 36.3535 26.1861 36.2608 26.0036C36.1971 25.8152 36.0863 25.6463 35.9389 25.513C35.6527 25.225 35.264 25.0624 34.858 25.0607L34.4517 25.1144C34.1942 25.1873 33.9595 25.3244 33.7695 25.513C33.3934 25.99 32.961 26.4199 32.4817 26.7932L32.796 26.5479C32.2599 26.9618 31.6724 27.3045 31.0482 27.5673L31.4085 27.4141C30.7687 27.6836 30.0959 27.8666 29.4077 27.9583L29.814 27.9046C29.1754 27.9889 28.5285 27.9889 27.8899 27.9046L28.2962 27.9583C27.6432 27.865 27.0045 27.6898 26.3951 27.437L26.7631 27.5904C26.1389 27.3275 25.5514 26.9848 25.0153 26.5708L25.3219 26.8085C24.7996 26.4074 24.3307 25.9411 23.9268 25.421L24.1644 25.7353C23.8698 25.3577 23.6131 24.952 23.3979 24.5241C23.3033 24.3521 23.1693 24.205 23.0069 24.0948C22.8582 23.9618 22.6793 23.8671 22.4857 23.8189C22.2847 23.7656 22.0733 23.7656 21.8724 23.8189C21.6675 23.826 21.4685 23.8897 21.2975 24.0028C20.9542 24.2018 20.7014 24.526 20.5922 24.9074L20.5386 25.3137C20.5414 25.5837 20.6154 25.8481 20.7532 26.0803L20.7609 26.0496Z" fill="#0000FF"/>
<path d="M28.4207 43.2129C28.3594 44.8381 28.3747 46.4708 28.4667 48.096C28.5664 49.8437 28.7657 51.5762 29.0186 53.3086C29.1566 54.2131 29.3176 55.1177 29.5016 56.0146C29.5449 56.21 29.6403 56.3901 29.7775 56.5359C29.8851 56.7025 30.0327 56.8395 30.2068 56.9345C30.3786 57.0399 30.5731 57.1029 30.7741 57.1184C30.975 57.1721 31.1864 57.1721 31.3873 57.1184C31.7712 57.0064 32.0993 56.7548 32.3072 56.4132L32.4605 56.0452C32.5296 55.7788 32.5296 55.4991 32.4605 55.2327C32.2229 54.0675 32.0236 52.933 31.8626 51.7295L31.9162 52.1358C31.611 49.8332 31.4548 47.5134 31.4486 45.1907C31.4486 44.5391 31.4486 43.8952 31.487 43.2436C31.4961 43.0379 31.4484 42.8337 31.349 42.6534C31.2825 42.4672 31.176 42.298 31.0369 42.1576C30.8978 42.0171 30.7296 41.909 30.5441 41.8408C30.3615 41.7482 30.1584 41.7033 29.9538 41.7105C29.7521 41.7093 29.552 41.748 29.3653 41.8243C29.1785 41.9006 29.0086 42.013 28.8653 42.1551C28.5901 42.4521 28.4322 42.8389 28.4207 43.2436V43.2129Z" fill="#0000FF"/>
<path d="M31.1877 58.161C33.5793 58.3654 35.9685 58.6209 38.355 58.9276L37.9488 58.8739C41.6896 59.3849 45.4074 60.0289 49.1023 60.8057C52.7971 61.5824 56.4358 62.4972 60.0182 63.5499C62.0496 64.1402 64.058 64.7765 66.0587 65.4587C66.4605 65.5642 66.8877 65.5063 67.2469 65.2977C67.5888 65.0955 67.8389 64.7685 67.9445 64.3855C68.0528 63.9942 68.0015 63.5758 67.8017 63.2223C67.6019 62.8687 67.2701 62.6089 66.8789 62.4997C64.6406 61.7383 62.3869 61.0356 60.1178 60.3917C57.8641 59.7401 55.5951 59.1499 53.3031 58.6056C51.011 58.0614 48.7037 57.5784 46.404 57.1415C44.1043 56.7045 41.8046 56.3289 39.4512 56.007C36.9982 55.6697 34.5452 55.3784 32.0769 55.1484L31.2106 55.0717C30.804 55.0717 30.4141 55.2333 30.1266 55.5208C29.839 55.8083 29.6775 56.1982 29.6775 56.6048C29.6763 56.8066 29.715 57.0066 29.7913 57.1934C29.8676 57.3802 29.98 57.5501 30.1221 57.6934C30.4231 57.9623 30.8075 58.1193 31.2106 58.138L31.1877 58.161Z" fill="#0000FF"/>
<path d="M26.2501 56.4439C25.5327 57.2031 24.7643 57.9125 23.9504 58.5672L23.2529 59.1192L23.5672 58.8815C22.8006 59.5025 21.9344 60.0851 21.0988 60.66L18.5691 62.3694C17.6416 63.0133 16.7217 63.6725 15.8325 64.3625C15.0276 64.9702 14.2596 65.6256 13.5328 66.3249C12.7412 67.113 12.0181 67.9669 11.3711 68.8775L11.1641 69.1765C10.9707 69.5409 10.9162 69.9631 11.0108 70.3647C11.0559 70.5595 11.151 70.7391 11.2868 70.8859C11.3927 71.052 11.5408 71.1869 11.716 71.2769C11.8927 71.3799 12.0881 71.4465 12.2908 71.4728C12.4936 71.4991 12.6995 71.4847 12.8966 71.4302L13.2645 71.2769C13.4902 71.1426 13.6776 70.9525 13.8088 70.725C14.0004 70.449 14.1921 70.1807 14.3914 69.9584L14.1537 70.265C15.0125 69.1815 15.9838 68.1922 17.0513 67.3138C17.358 67.0531 17.6723 66.8078 17.9866 66.5472L17.6723 66.7848C19.0291 65.7423 20.4549 64.7994 21.8654 63.8412C23.2759 62.883 24.8856 61.7638 26.2961 60.591C27.0324 59.9849 27.7265 59.3292 28.3735 58.6286C28.6566 58.3392 28.8184 57.9525 28.8258 57.5477C28.834 57.343 28.7891 57.1397 28.6955 56.9575C28.6347 56.7677 28.5234 56.5981 28.3735 56.4668C28.2311 56.3243 28.062 56.2112 27.8759 56.1341C27.6898 56.0569 27.4903 56.0172 27.2888 56.0172C27.0873 56.0172 26.8878 56.0569 26.7017 56.1341C26.5156 56.2112 26.3465 56.3243 26.2041 56.4668L26.2501 56.4439Z" fill="#0000FF"/>
<path d="M28.5661 49.8744C28.4741 52.2201 28.3898 54.5658 28.3285 56.9115C28.2672 59.2572 28.2365 61.5952 28.2672 63.9332C28.2978 66.2712 28.3898 68.6246 28.5661 70.955C28.7424 73.2853 29.0414 75.8073 29.44 78.2067C29.8201 80.5058 30.332 82.7811 30.9731 85.0214C31.0498 85.305 31.1341 85.581 31.2184 85.857C31.3159 86.2158 31.5405 86.527 31.8504 86.7325C32.1603 86.9381 32.5343 87.024 32.9028 86.9743C33.2713 86.9246 33.6092 86.7427 33.8536 86.4624C34.0979 86.1821 34.2321 85.8225 34.231 85.4507L34.461 81.8555C34.4613 81.4506 34.3015 81.0621 34.0164 80.7747C33.8738 80.6312 33.7042 80.5173 33.5173 80.4397C33.3305 80.3621 33.1302 80.3222 32.9279 80.3224C32.5231 80.3297 32.1364 80.4915 31.847 80.7747C31.5731 81.07 31.4128 81.453 31.3947 81.8555L31.1648 85.4507L34.1774 85.0444C33.4132 82.531 32.814 79.9703 32.3836 77.3788C32.261 76.6122 32.1536 75.907 32.054 75.1711L32.1077 75.5773C31.6729 72.2718 31.417 68.9451 31.3411 65.612C31.2568 62.2544 31.3411 58.8892 31.4101 55.5317C31.4637 53.6536 31.5404 51.7831 31.6094 49.905C31.6094 49.4984 31.4479 49.1085 31.1603 48.821C30.8728 48.5335 30.4829 48.3719 30.0763 48.3719C29.6727 48.3816 29.2884 48.5463 29.0029 48.8317C28.7175 49.1172 28.5528 49.5015 28.5431 49.905L28.5661 49.8744Z" fill="#0000FF"/>
<path d="M31.9678 83.519C32.9972 84.4196 34.1449 85.1753 35.379 85.765C36.6285 86.3629 37.924 86.8535 39.2118 87.3441C39.8711 87.5971 40.538 87.8577 41.1972 88.1107L40.8293 87.9574C42.2188 88.5384 43.5465 89.2575 44.7924 90.1038C45.145 90.3414 45.4823 90.5944 45.8196 90.8703L45.513 90.6327C46.6523 91.5141 47.7025 92.5051 48.6482 93.5916C48.9165 93.8982 49.1772 94.2126 49.4148 94.5422L49.1695 94.2279L49.5528 94.7338C49.6428 94.909 49.7777 95.0572 49.9437 95.1631C50.0905 95.2989 50.2702 95.394 50.465 95.4391C50.6664 95.4887 50.8768 95.4887 51.0782 95.4391C51.2795 95.4247 51.4742 95.3616 51.6455 95.2551C51.9919 95.0526 52.2451 94.7223 52.3507 94.3352L52.4044 93.9289C52.4039 93.6596 52.3325 93.3953 52.1974 93.1623C50.7892 91.1944 49.0791 89.4611 47.1304 88.0264C46.2588 87.3742 45.3417 86.7849 44.3861 86.2633C43.3215 85.708 42.2261 85.2141 41.1052 84.7838C40.101 84.3852 39.0815 84.0172 38.0773 83.611L37.7017 83.45L38.0696 83.6033C37.0491 83.1821 36.0689 82.669 35.1413 82.0702C34.8807 81.9015 34.6277 81.7175 34.3748 81.5259L34.6891 81.7635C34.4888 81.6158 34.2969 81.4571 34.1141 81.2882C33.9803 81.1431 33.8114 81.0349 33.6235 80.974C33.441 80.8814 33.2379 80.8365 33.0333 80.8436C32.8286 80.8355 32.6253 80.8804 32.443 80.974C32.2529 81.0346 32.0814 81.1428 31.9448 81.2882C31.8022 81.4306 31.6891 81.5997 31.612 81.7858C31.5348 81.972 31.4951 82.1715 31.4951 82.373C31.4951 82.5744 31.5348 82.7739 31.612 82.9601C31.6891 83.1462 31.8022 83.3153 31.9448 83.4576L31.9678 83.519Z" fill="#0000FF"/>
<path d="M29.7909 82.0165C29.262 83.151 28.7101 84.3162 28.1581 85.4047C27.6062 86.4932 27.0313 87.6507 26.4487 88.7622C25.8661 89.8738 25.2835 90.9776 24.6779 92.0815C24.0723 93.1853 23.4668 94.2815 22.8382 95.37C22.2096 96.4586 21.5887 97.5318 20.9448 98.5973C20.8604 98.7353 20.7761 98.8732 20.6995 99.0112C20.5862 99.1793 20.5224 99.3759 20.5155 99.5785C20.4584 99.7789 20.4584 99.9913 20.5155 100.192C20.5609 100.385 20.653 100.564 20.7838 100.713C20.8897 100.879 21.0379 101.014 21.2131 101.104C21.3907 101.208 21.5874 101.275 21.7915 101.301C21.9957 101.328 22.203 101.313 22.4012 101.257C22.7801 101.143 23.1044 100.895 23.3134 100.56C23.9676 99.4763 24.6064 98.3929 25.2299 97.3095C25.8508 96.2286 26.4717 95.1324 27.0773 94.0362C27.6829 92.94 28.2731 91.8285 28.8557 90.717C29.4383 89.6055 30.0056 88.4863 30.5652 87.3594C31.1247 86.2326 31.669 85.1211 32.2056 83.9942L32.4126 83.5573C32.521 83.3874 32.5819 83.1915 32.5889 82.99C32.6422 82.7891 32.6422 82.5777 32.5889 82.3767C32.5438 82.1819 32.4487 82.0023 32.3129 81.8555C32.2049 81.6912 32.0572 81.5568 31.8836 81.4646C31.707 81.3616 31.5116 81.295 31.3089 81.2686C31.1061 81.2423 30.9002 81.2568 30.7031 81.3112C30.316 81.4169 29.9858 81.6701 29.7833 82.0165H29.7909Z" fill="#0000FF"/>
</svg>
