<svg width="328" height="23" viewBox="0 0 328 23" fill="none" xmlns="http://www.w3.org/2000/svg">
<path d="M1.93003 4.03006H128.74C170.74 4.03006 212.67 3.92006 254.62 5.03006C278.14 5.66006 301.62 6.68006 325.14 8.34006V4.34005C286.36 4.02005 247.577 4.12004 208.79 4.64004C170.003 5.16004 131.233 6.11008 92.48 7.49008C81.7534 7.87008 71.02 8.2834 60.28 8.73007C49.77 9.16007 39.21 9.73006 28.95 12.1601C26.68 12.7101 27.3 15.9701 29.48 16.0901C67.4134 18.2301 105.38 18.9201 143.38 18.1601C154.107 17.9401 164.83 17.6067 175.55 17.1601L175.02 13.2301L155.43 16.7101C153.5 17.0601 153.55 20.18 155.43 20.57C165.584 22.6705 176.018 23.0592 186.3 21.7201C186.826 21.705 187.326 21.4894 187.698 21.1175C188.069 20.7457 188.285 20.2457 188.3 19.7201C188.3 19.1896 188.089 18.6809 187.714 18.3058C187.339 17.9307 186.83 17.7201 186.3 17.7201C176.38 19.0491 166.308 18.7111 156.5 16.7201V20.58L176.08 17.0901C178.31 16.7001 177.79 13.0901 175.55 13.1701C137.597 14.7501 99.6267 14.8834 61.64 13.57C50.9134 13.1967 40.1934 12.7067 29.48 12.1001L30.02 16.0301C39.12 13.8301 48.47 13.2401 57.8 12.8401C67.4267 12.4201 77.0567 12.0434 86.69 11.7101C106.023 11.0034 125.357 10.4034 144.69 9.91006C183.143 8.91673 221.6 8.34671 260.06 8.20004C281.76 8.12004 303.46 8.17006 325.16 8.35007C327.76 8.35007 327.7 4.53006 325.16 4.35006C283.1 1.35006 240.94 0.460082 198.79 0.180082C156.64 -0.0999181 114.79 0.0400575 72.79 0.0300575H1.93003C-0.639969 0.0300575 -0.649969 4.03006 1.93003 4.03006Z" fill="#0000FF"/>
</svg>
