<svg width="46" height="58" viewBox="0 0 46 58" fill="none" xmlns="http://www.w3.org/2000/svg">
<path d="M7.93388 56.7185C11.8809 52.9803 15.8797 49.2975 19.9304 45.6702C23.9811 42.0428 28.0793 38.4662 32.225 34.9405C34.5854 32.9536 36.9305 30.9948 39.2604 29.0642L38.9183 29.3427C40.7306 27.8548 42.5569 26.3746 44.3973 24.902C44.7609 24.6562 45.0253 24.2891 45.1431 23.8664C45.1966 23.6495 45.2067 23.4243 45.1729 23.2036C45.139 22.9828 45.062 22.7709 44.9461 22.58C44.8303 22.3892 44.6778 22.223 44.4976 22.0911C44.3174 21.9592 44.113 21.8642 43.896 21.8115C43.4513 21.7254 42.9904 21.7995 42.5951 22.0207C36.849 24.9653 31.2188 28.1116 25.7045 31.4594C20.1901 34.8073 14.8109 38.3717 9.56676 42.1527C6.65123 44.2572 3.75582 46.4295 0.88053 48.6695C0.516936 48.9153 0.252581 49.2823 0.134715 49.7051C0.079548 49.9247 0.068941 50.1532 0.103461 50.3771C0.13798 50.6009 0.216962 50.8156 0.335744 51.0084C0.453433 51.1979 0.607326 51.3623 0.788613 51.4922C0.969899 51.6222 1.17503 51.7151 1.39227 51.7657C1.6095 51.8163 1.83458 51.8236 2.05463 51.7871C2.27468 51.7507 2.48534 51.6712 2.67464 51.5532C5.88132 49.6544 9.0799 47.758 12.3116 45.9137C15.5433 44.0694 18.7724 42.3056 22.0759 40.6435C23.9543 39.6965 25.8483 38.7921 27.7579 37.9303L27.3461 38.1233C31.1029 36.4186 34.9584 34.9403 38.8918 33.6962C39.2099 33.599 39.4924 33.4105 39.7043 33.1541C39.9161 32.8977 40.0479 32.5846 40.0833 32.2539C40.1134 31.9653 40.0666 31.6738 39.9477 31.4091C39.8113 31.0625 39.5536 30.7773 39.2226 30.6065C35.0179 28.9045 30.9169 27.0152 26.9197 24.9388C22.9136 22.8621 18.9965 20.6085 15.1767 18.1756C13.032 16.7942 10.926 15.3543 8.85855 13.8556L9.20968 14.1143C7.40609 12.8087 5.62971 11.4656 3.88052 10.0849L2.3182 12.9913C4.26076 13.5251 6.1743 14.1595 8.05101 14.8918L7.64838 14.7281C11.8735 16.39 15.92 18.4744 19.7262 20.9495C20.8148 21.6353 21.8618 22.36 22.8999 23.114L22.5487 22.8553C24.9394 24.5828 27.2338 26.4397 29.4216 28.4178C30.0416 28.9861 30.6454 29.5592 31.2679 30.1355L33.2376 27.4091C30.4983 25.987 27.8412 24.4118 25.279 22.691C24.5385 22.1939 23.8142 21.692 23.0607 21.1811L23.42 21.4373C18.8694 18.1583 14.6609 14.429 10.8584 10.306C9.79602 9.15212 8.77005 7.98157 7.78042 6.79434L8.059 7.13649C6.65893 5.4014 5.24919 3.63376 4.01931 1.7862C3.78031 1.40411 3.39931 1.13263 2.96014 1.03144C2.52097 0.930259 2.05964 1.00767 1.67755 1.24666C1.29546 1.48565 1.02392 1.86664 0.922734 2.30581C0.82155 2.74498 0.898998 3.20636 1.13799 3.58845C7.26031 12.4151 15.0043 19.9978 23.9579 25.933C26.4196 27.5803 28.9713 29.0892 31.6009 30.4527C31.9631 30.6468 32.3834 30.7029 32.7838 30.6106C33.1842 30.5183 33.5374 30.2838 33.7781 29.9507C34.0187 29.6177 34.1303 29.2086 34.0921 28.7995C34.054 28.3904 33.8687 28.009 33.5707 27.7262C30.1857 24.4797 26.5317 21.5259 22.648 18.8962C18.8703 16.3371 14.8473 14.1603 10.6385 12.398C8.18775 11.3405 5.67321 10.4374 3.10962 9.69417C2.7445 9.60339 2.35957 9.63653 2.01533 9.78837C1.6711 9.94021 1.38708 10.2021 1.20794 10.533C1.08461 10.7989 1.01658 11.0871 1.00799 11.3801C1.01228 11.6063 1.0618 11.8294 1.15359 12.0362C1.24538 12.243 1.3776 12.4294 1.54248 12.5844C5.86039 16.0139 10.3687 19.1967 15.0458 22.1175C19.6217 24.9808 24.3564 27.5823 29.2271 29.9094C31.9725 31.2274 34.7719 32.4586 37.6031 33.6185L37.9348 30.502C32.741 32.1623 27.675 34.1985 22.7769 36.5943C17.9509 38.9118 13.2688 41.5053 8.63766 44.1809C6.04573 45.676 3.46348 47.2036 0.88934 48.7288L2.68345 51.6126C7.76941 47.6366 12.994 43.8496 18.3574 40.2515C23.7207 36.6534 29.2067 33.2697 34.8153 30.1004C37.9672 28.3152 41.1563 26.5956 44.3826 24.9418L42.5804 22.0604C37.5201 26.1231 32.5209 30.2622 27.5827 34.4775C22.7602 38.6054 18.0094 42.8064 13.3306 47.0804C10.6801 49.5015 8.04939 51.9492 5.43835 54.4235C5.28525 54.5861 5.16572 54.7773 5.08665 54.9861C5.00758 55.195 4.97053 55.4174 4.97758 55.6405C4.98463 55.8637 5.03565 56.0833 5.12775 56.2868C5.21984 56.4902 5.35115 56.6735 5.51421 56.826C5.84835 57.1233 6.28418 57.2804 6.73112 57.2647C7.17805 57.2491 7.6018 57.0619 7.91434 56.742L7.93388 56.7185Z" fill="#0000FF"/>
</svg>
