<svg width="109" height="98" viewBox="0 0 109 98" fill="none" xmlns="http://www.w3.org/2000/svg">
<path d="M46.4831 87.716C49.7684 86.3639 52.9731 84.8237 56.0812 83.1031C59.0024 81.4903 61.8671 79.7195 64.7431 78.0729L73.8224 72.6592L82.9242 67.2455L91.947 61.843L93.0749 61.155C93.7019 60.7765 94.1647 60.177 94.372 59.4745C94.5662 58.7522 94.468 57.9825 94.0985 57.3322C93.729 56.682 93.1181 56.2035 92.3982 56.0007C91.6617 55.8186 90.8836 55.9235 90.2215 56.2939L81.2663 61.6174L72.3224 66.9522L63.4349 72.2419C60.5814 73.9449 57.7279 75.6254 54.8293 77.3059C51.9307 78.9864 49.0772 80.4527 46.0771 81.8174L44.9493 82.291L45.626 82.0091L44.9041 82.3136C44.5452 82.3884 44.2137 82.56 43.9455 82.8099C43.6382 83.0081 43.389 83.2845 43.2236 83.6106C43.0349 83.9295 42.9113 84.2825 42.8596 84.6493C42.8079 85.0162 42.8293 85.3897 42.9227 85.7482C43.016 86.1067 43.1792 86.4433 43.4031 86.7385C43.6271 87.0336 43.9073 87.2815 44.2274 87.4679L44.9041 87.7499C45.395 87.8854 45.9133 87.8854 46.4041 87.7499L46.4831 87.716Z" fill="#0000FF"/>
<path d="M93.6801 58.5496C93.8297 57.8527 94.0488 57.1726 94.3342 56.5195L94.0411 57.1848C94.5712 55.9442 95.2703 54.7712 95.9132 53.587C96.2516 52.9667 96.5675 52.3464 96.8494 51.7035C97.1314 51.0606 97.402 50.35 97.7403 49.6959C98.3945 48.4214 99.3081 47.3049 100.052 46.0981C100.844 44.7543 101.487 43.3286 101.97 41.846C102.466 40.4475 102.883 39.0151 103.459 37.6391L103.177 38.3045C103.608 37.2437 104.181 36.2459 104.88 35.3382L104.44 35.9135C105.241 34.8758 106.132 33.9059 106.91 32.8344C107.219 32.3997 107.491 31.9393 107.722 31.4584C108.065 30.7964 108.315 30.0906 108.466 29.3606C108.564 28.8512 108.617 28.3341 108.624 27.8154C108.609 27.2867 108.537 26.7611 108.41 26.2477C108.196 25.5487 107.735 24.9514 107.113 24.5672C106.801 24.3599 106.438 24.2428 106.064 24.2289C105.69 24.1442 105.3 24.1637 104.936 24.2852C104.228 24.4811 103.623 24.9414 103.244 25.571L102.962 26.2477C102.827 26.7386 102.827 27.2569 102.962 27.7478C102.962 27.8831 102.962 28.0184 103.041 28.1538L102.94 27.4094C102.985 27.7501 102.985 28.0951 102.94 28.4358L103.041 27.6801C102.972 28.1652 102.839 28.6391 102.646 29.0899L102.928 28.4132C102.637 29.1021 102.258 29.7504 101.801 30.3418L102.24 29.7666C100.975 31.1905 99.8426 32.727 98.8569 34.357C98.0692 35.9747 97.4129 37.6531 96.8944 39.376C96.6125 40.2219 96.3193 41.0678 95.9809 41.8911L96.2629 41.2144C95.829 42.2232 95.2963 43.1866 94.6726 44.0904C93.9946 45.02 93.3768 45.9919 92.8229 47.0003C92.3154 48.038 91.9206 49.1207 91.3905 50.147C90.8604 51.1734 90.3416 52.0531 89.834 53.0118C89.454 53.7458 89.1116 54.4987 88.8078 55.2675C88.5818 55.8341 88.4044 56.419 88.2776 57.0157C88.1583 57.3799 88.1389 57.7693 88.2213 58.1436C88.2456 58.5158 88.3618 58.8762 88.5596 59.1925C88.7287 59.513 88.9773 59.7848 89.2814 59.982C89.5549 60.2266 89.884 60.4008 90.2401 60.4895L90.9958 60.591C91.4949 60.5897 91.9849 60.4574 92.4169 60.2075C93.0556 59.8369 93.5219 59.2287 93.7139 58.5157L93.6801 58.5496Z" fill="#0000FF"/>
<path d="M100.583 25.3906C96.1614 28.1989 91.5598 30.7592 86.9694 33.2856C84.6611 34.5187 82.3377 35.7293 79.9992 36.9173C77.6533 38.1241 75.3186 39.3534 72.9275 40.47C71.6531 41.0678 70.356 41.5979 69.1379 42.3536C67.7706 43.2113 66.463 44.1609 65.2243 45.1957L65.7882 44.7559C65.0137 45.3638 64.1956 45.9141 63.3407 46.4026C62.4948 46.8763 61.6152 47.2823 60.7355 47.677L54.9608 50.2598C54.5351 50.5082 54.1819 50.8639 53.9365 51.2914C53.6911 51.7188 53.5622 52.2031 53.5623 52.696V52.7637L53.6638 52.0193C53.6494 52.1199 53.6229 52.2183 53.5847 52.3125L53.8667 51.6471C53.8251 51.7364 53.7722 51.8198 53.7089 51.8952L54.1487 51.3313C54.0706 51.4224 53.9837 51.5055 53.8893 51.5795L54.4645 51.1396C54.2615 51.2823 54.0419 51.3998 53.8104 51.4892L54.4871 51.2072C53.4772 51.5153 52.508 51.9432 51.5998 52.4817C51.0592 52.8777 50.55 53.3151 50.0771 53.79C49.7514 54.1232 49.409 54.4394 49.0509 54.7374L49.6148 54.2976C49.3755 54.4741 49.1184 54.6254 48.8478 54.7487L49.5245 54.4668C48.9488 54.6591 48.3558 54.795 47.7538 54.8728C46.8047 55.092 45.9273 55.5501 45.2048 56.2036C44.5056 56.7901 44.077 57.6474 43.3777 58.2226L43.9416 57.7827C43.8098 57.8862 43.6659 57.9733 43.513 58.0421L44.1897 57.7601C44.0518 57.8169 43.9081 57.8585 43.7611 57.8841L44.5056 57.7827H44.3702C43.6257 57.7998 42.9141 58.0933 42.3739 58.606C41.8463 59.1364 41.5502 59.8542 41.5502 60.6023C41.5502 61.3505 41.8463 62.0681 42.3739 62.5986C42.9044 63.126 43.6221 63.4221 44.3702 63.422C45.165 63.4056 45.942 63.1841 46.6259 62.7791C47.1061 62.4888 47.5396 62.1276 47.9117 61.7076C48.3374 61.1261 48.817 60.5861 49.3441 60.0948L48.7689 60.5347C48.9348 60.4122 49.1123 60.3064 49.299 60.2188L48.6336 60.5008C49.1642 60.3198 49.7122 60.195 50.2689 60.1286C50.9966 59.9838 51.6897 59.7005 52.3104 59.294C52.8802 58.9001 53.4125 58.4546 53.9006 57.9631C54.2575 57.5971 54.634 57.2507 55.0284 56.9255L54.4532 57.3654C54.7078 57.1753 54.9842 57.0162 55.2765 56.8916L54.5998 57.1736C55.4006 56.8352 56.2465 56.6097 57.0135 56.2036C57.2339 56.0817 57.4418 55.9381 57.6339 55.7751C57.838 55.642 58.0238 55.4828 58.1865 55.3014C58.5855 54.8714 58.8858 54.3594 59.0663 53.8013C59.1765 53.4347 59.2408 53.0559 59.2579 52.6734L57.8594 55.1097C60.0249 54.1397 62.2016 53.1923 64.3558 52.1998C65.3515 51.7568 66.3129 51.2403 67.2319 50.6546C68.3598 49.9215 69.3748 49.0643 70.435 48.2523L69.8598 48.6921C70.8063 47.954 71.8137 47.2975 72.8712 46.7297C73.9314 46.177 75.0367 45.692 76.1195 45.1845C78.3752 44.0566 80.6309 42.9287 82.8866 41.8009C87.398 39.5452 91.7966 37.1767 96.1614 34.7067C98.6314 33.3081 101.079 31.8532 103.47 30.3306C104.096 29.9452 104.557 29.343 104.767 28.6388C104.958 27.9077 104.857 27.1312 104.485 26.4733C104.106 25.8294 103.488 25.3612 102.766 25.1711C102.043 24.981 101.275 25.0842 100.628 25.4582L100.583 25.3906Z" fill="#0000FF"/>
<path d="M48.9971 84.1181C48.8054 82.9 48.6362 81.682 48.467 80.4751L48.5685 81.2195C48.2189 78.648 47.9369 76.0765 47.6775 73.4937C47.4181 70.9109 47.17 68.3393 46.9332 65.7678L46.5272 61.3692C46.5539 60.9786 46.4718 60.5882 46.2902 60.2414C46.1788 59.8904 45.9764 59.5752 45.7037 59.3278C45.4587 59.0601 45.1476 58.8617 44.8015 58.7526C44.4553 58.5682 44.0652 58.4824 43.6736 58.5045L42.9292 58.606C42.4603 58.7355 42.033 58.9842 41.6886 59.3278L41.2487 59.903C40.9954 60.3342 40.8593 60.8241 40.854 61.3241C41.1472 64.4145 41.418 67.5048 41.7225 70.5838C42.027 73.6629 42.3202 76.6968 42.7037 79.742C42.9518 81.6819 43.2225 83.6332 43.527 85.5731C43.6157 85.9292 43.7899 86.2582 44.0345 86.5317C44.2468 86.8301 44.5209 87.0793 44.8381 87.2623C45.1554 87.4452 45.5083 87.5577 45.8729 87.5919C46.2472 87.6743 46.6366 87.6549 47.0008 87.5356L47.6662 87.2536C48.0887 87.0114 48.4391 86.661 48.6813 86.2385L48.9632 85.5731C49.0987 85.0822 49.0987 84.5639 48.9632 84.073L48.9971 84.1181Z" fill="#0000FF"/>
<path d="M44.6322 85.4716C42.1509 84.2084 39.7185 82.855 37.335 81.4114C34.9665 79.979 32.6431 78.4677 30.3874 76.8999C29.1129 75.9864 27.8497 75.0615 26.6091 74.1028L27.0715 74.4524C24.688 72.6103 22.3872 70.6816 20.169 68.6665C19.5374 68.1026 18.9171 67.5387 18.2968 66.9296C17.8738 66.5102 17.3021 66.275 16.7064 66.2755C16.4048 66.2579 16.1042 66.3243 15.838 66.4672C15.5597 66.5595 15.308 66.7182 15.1048 66.9296C14.8958 67.1404 14.7304 67.3904 14.6181 67.6652C14.5059 67.94 14.449 68.2343 14.4507 68.5312C14.4574 69.1254 14.6914 69.6946 15.1048 70.1215C16.6763 71.6253 18.2779 73.0615 19.9095 74.4299C21.669 75.93 23.4849 77.3623 25.3233 78.7496C27.1617 80.1368 28.7971 81.2985 30.5791 82.4941C32.3612 83.6896 34.177 84.8287 36.0267 85.8776C37.8763 86.9266 39.7373 87.998 41.6659 88.9905L42.3765 89.3515C42.6305 89.513 42.9218 89.6062 43.2224 89.6221C43.5142 89.7007 43.8216 89.7007 44.1134 89.6221C44.401 89.5583 44.6659 89.4181 44.8803 89.2161C45.1255 89.0578 45.3271 88.8407 45.4668 88.5845C45.6183 88.3247 45.7164 88.0371 45.7551 87.7388C45.7939 87.4406 45.7724 87.1375 45.6923 86.8476C45.618 86.5658 45.488 86.3018 45.3097 86.0713C45.1315 85.8407 44.9088 85.6483 44.6548 85.5054L44.6322 85.4716Z" fill="#0000FF"/>
<path d="M17.7759 66.986C16.8768 65.6876 16.1206 64.2961 15.5202 62.8355L15.7458 63.3768C15.0353 61.6737 14.46 59.9143 13.8735 58.1548C13.287 56.3954 12.5991 54.3765 11.9224 52.5155C10.5013 48.5906 8.95614 44.7108 7.32075 40.8761C6.4335 38.8008 5.50856 36.7406 4.54612 34.6954C4.4064 34.4392 4.20476 34.2221 3.95961 34.0638C3.74519 33.8618 3.48029 33.7216 3.19275 33.6578C2.90094 33.5792 2.59351 33.5792 2.3017 33.6578C2.00113 33.6737 1.70976 33.7669 1.4558 33.9284C0.95313 34.2343 0.583097 34.7171 0.418261 35.2819L0.339233 35.8796C0.343359 36.2768 0.452331 36.6659 0.655067 37.0075C1.78292 39.4098 2.91077 41.8347 3.88072 44.2709L3.65521 43.7295C5.07631 47.0906 6.40332 50.4741 7.63644 53.8803C8.25676 55.5833 8.84334 57.2638 9.41855 59.0233C9.99375 60.7828 10.4561 62.2264 11.0765 63.7829C11.7866 65.711 12.7176 67.5504 13.851 69.2643C13.9903 69.5237 14.1918 69.7446 14.4375 69.9072C14.6556 70.1015 14.9195 70.2373 15.2045 70.3019C15.7915 70.4424 16.4096 70.3621 16.9413 70.0763C17.4486 69.781 17.8209 69.2995 17.979 68.7341C18.0606 68.4425 18.0827 68.1374 18.0439 67.8371C18.0052 67.5368 17.9065 67.2473 17.7534 66.986H17.7759Z" fill="#0000FF"/>
<path d="M3.8591 37.9098L5.38168 36.6917L4.91936 37.0526C11.0211 32.3495 17.9123 28.8193 24.6343 25.1312C31.7736 21.2175 38.8791 17.2362 46.1651 13.5706C50.1727 11.5706 54.2368 9.69079 58.3573 7.93133L57.8158 8.15692C60.376 7.02906 62.959 6.04782 65.553 5.05531C66.1145 4.88379 66.595 4.51527 66.9064 4.01763C67.2059 3.50138 67.2887 2.88747 67.1365 2.31035C66.9843 1.73324 66.6096 1.23998 66.0944 0.938598C65.836 0.7834 65.5483 0.683265 65.2495 0.644449C64.9506 0.605632 64.6469 0.628958 64.3574 0.713012C59.846 2.42736 55.3346 4.27709 50.9923 6.26212C46.6501 8.24715 42.4883 10.3111 38.3265 12.5104C34.1647 14.7098 29.8901 17.0783 25.6944 19.3791C21.4988 21.6799 17.5062 23.8229 13.4685 26.1463C9.45875 28.3797 5.61425 30.8975 1.96438 33.6803C1.52451 34.0187 1.0959 34.3683 0.667315 34.718C0.349193 35.0335 0.132177 35.4365 0.0440465 35.8758C-0.0440836 36.3151 0.000689415 36.7707 0.1725 37.1845C0.344311 37.5983 0.635391 37.9516 1.00876 38.1993C1.38212 38.447 1.82074 38.5778 2.26879 38.5752C2.85944 38.5421 3.42086 38.3072 3.8591 37.9098Z" fill="#0000FF"/>
<path d="M63.1953 4.58159C65.9247 5.81095 68.6204 7.10805 71.2934 8.4502C73.9664 9.79235 76.6169 11.1909 79.1884 12.6345C81.7599 14.0782 84.3766 15.5557 86.9368 17.1459C89.497 18.7362 92.0234 20.2814 94.5273 21.9168C97.0311 23.5522 99.5012 25.3004 101.937 26.9922L102.84 27.6238C103.099 27.7772 103.386 27.8771 103.684 27.9178C103.982 27.9585 104.286 27.939 104.577 27.8606C105.138 27.6952 105.617 27.3249 105.919 26.823C106.07 26.5631 106.168 26.2756 106.207 25.9773C106.246 25.679 106.224 25.376 106.144 25.0861L105.919 24.5447C105.726 24.2099 105.45 23.9303 105.118 23.7327C102.682 21.9882 100.219 20.2889 97.7303 18.6347C95.2415 16.9805 92.7152 15.3752 90.1512 13.8187C87.6022 12.2623 85.027 10.7585 82.4254 9.30731C79.8087 7.8411 77.1695 6.44256 74.5304 5.07785C71.8912 3.71314 69.173 2.42742 66.4549 1.1755L65.451 0.713042C65.1982 0.557978 64.9122 0.465212 64.6164 0.442367C64.3208 0.363938 64.0099 0.363938 63.7142 0.442367C63.4283 0.520675 63.1605 0.654601 62.9263 0.83647C62.6921 1.01834 62.4961 1.24459 62.3494 1.50228C62.2028 1.75997 62.1084 2.04405 62.0716 2.33826C62.0348 2.63247 62.0565 2.93106 62.1352 3.21692C62.2906 3.78647 62.6631 4.27239 63.1727 4.57037L63.1953 4.58159Z" fill="#0000FF"/>
<path d="M43.2876 57.7714C40.8853 56.3277 38.4828 54.8615 36.103 53.3727C33.7233 51.8839 31.3548 50.3839 29.0089 48.8613C26.663 47.3387 24.3282 45.7935 22.0161 44.2258C19.704 42.6581 17.3807 41.0565 15.0912 39.4324C12.8016 37.8083 10.512 36.1842 8.245 34.5262L7.41039 33.9171C7.15756 33.7621 6.87151 33.6693 6.57579 33.6465C6.28014 33.568 5.9691 33.568 5.67345 33.6465C5.38747 33.7248 5.11982 33.8587 4.88565 34.0406C4.65148 34.2224 4.45544 34.4487 4.30878 34.7064C4.16213 34.9641 4.06772 35.2482 4.03095 35.5424C3.99418 35.8366 4.01583 36.1352 4.09456 36.421L4.33136 36.9624C4.52432 37.2972 4.80002 37.5768 5.1321 37.7745C7.38781 39.4362 9.66615 41.0753 11.967 42.6919C14.2678 44.3085 16.5762 45.9101 18.892 47.4966C21.1478 49.0643 23.5275 50.6208 25.8621 52.1434C28.1968 53.666 30.5766 55.1999 32.9564 56.6548C35.3362 58.1097 37.7272 59.621 40.1296 61.076L41.0093 61.6061C41.2654 61.7562 41.5486 61.8542 41.8427 61.8946C42.1368 61.935 42.4359 61.917 42.723 61.8415C43.0101 61.7661 43.2795 61.6348 43.5158 61.455C43.752 61.2753 43.9504 61.0506 44.0997 60.794C44.2512 60.5342 44.3491 60.2466 44.3878 59.9483C44.4266 59.65 44.4053 59.3471 44.3252 59.0571C44.1574 58.4938 43.7881 58.012 43.2876 57.7037V57.7714Z" fill="#0000FF"/>
<path d="M64.0519 48.5568C64.1496 46.1657 64.2399 43.7746 64.3226 41.3835C64.4128 38.7669 64.5068 36.1578 64.6045 33.5562C64.706 30.8493 64.8189 28.1538 64.9655 25.4469C65.1122 22.74 65.27 20.0896 65.4843 17.4166C65.6986 14.7435 65.9355 12.3412 66.2513 9.8148C66.2513 9.51028 66.3302 9.20576 66.3754 8.90124L66.2963 9.49904C66.4655 8.202 66.6573 6.91625 66.8828 5.63049C66.9671 5.33947 66.9671 5.03046 66.8828 4.73944C66.8724 4.4379 66.7787 4.14514 66.6122 3.89355C66.3107 3.39161 65.8317 3.02128 65.2701 2.85594C64.6801 2.70223 64.0535 2.78309 63.5218 3.08152C63.0164 3.3817 62.6482 3.86733 62.4955 4.43497C61.9992 7.24333 61.6383 10.0742 61.3676 12.9164C61.0969 15.7586 60.8375 18.7362 60.6457 21.6573C60.454 24.5785 60.3075 27.6462 60.1834 30.6802C60.0594 33.7141 59.9578 36.5789 59.8563 39.5226C59.7661 42.2408 59.6758 44.9589 59.5518 47.677V48.5906C59.5578 49.1883 59.7919 49.7611 60.206 50.1921C60.4168 50.4012 60.6666 50.5666 60.9415 50.6789C61.2163 50.7911 61.5106 50.848 61.8075 50.8463C62.4057 50.8463 62.9794 50.6087 63.4025 50.1856C63.8255 49.7626 64.0632 49.1888 64.0632 48.5906L64.0519 48.5568Z" fill="#0000FF"/>
<path d="M77.1041 74.8246C76.9989 76.0969 77.052 77.3774 77.262 78.6367C77.2863 78.8937 77.3392 79.1472 77.4198 79.3924C77.4887 79.6151 77.5795 79.8304 77.6906 80.0353C77.7641 80.1545 77.8471 80.2677 77.9387 80.3736C78.1682 80.6859 78.4601 80.947 78.7959 81.1406C79.1529 81.329 79.5317 81.4729 79.9238 81.5691L80.6004 81.7158C81.7125 81.9468 82.8497 82.034 83.984 81.9752C85.1077 81.9199 86.219 81.715 87.2886 81.3661C88.3282 81.0249 89.3096 80.5267 90.1985 79.8886C90.6911 79.5467 91.1585 79.1697 91.5971 78.7608C92.0032 78.3158 92.38 77.8449 92.7249 77.351C93.3374 76.4999 93.8166 75.5606 94.146 74.5652C94.2806 74.1605 94.3825 73.7455 94.4506 73.3245C94.5615 72.7177 94.6217 72.1028 94.6309 71.4861C94.6453 70.2506 94.3342 69.033 93.7287 67.9559C93.3218 67.2933 92.7752 66.7276 92.1271 66.298C91.9453 66.1855 91.757 66.0838 91.5632 65.9934L90.4353 65.5423L89.8262 65.3167L90.3677 65.5423C90.09 65.4356 89.8281 65.2914 89.5894 65.1137L90.0406 65.4634L89.9166 65.3505C89.7155 65.1365 89.4632 64.9774 89.1834 64.8881C88.9186 64.7408 88.6177 64.6704 88.315 64.6851C88.0124 64.6728 87.7122 64.743 87.4465 64.8881C87.1714 64.9804 86.9234 65.1392 86.7246 65.3505C86.5149 65.56 86.3486 65.8089 86.2351 66.0827C86.1215 66.3565 86.0631 66.6501 86.0631 66.9465C86.0631 67.2429 86.1215 67.5365 86.2351 67.8103C86.3486 68.0841 86.5149 68.3329 86.7246 68.5424C87.0031 68.7963 87.3053 69.023 87.627 69.2191C87.9531 69.3877 88.2882 69.5383 88.6308 69.6703C88.9917 69.8169 89.3639 69.9297 89.7586 70.0876L89.2173 69.862C89.4976 69.9681 89.76 70.1165 89.9955 70.3018L89.5443 69.9409C89.7124 70.0846 89.8672 70.2432 90.0067 70.4147L89.6572 69.9635C89.8242 70.1868 89.9643 70.4291 90.0745 70.6854L89.8488 70.1439C90.0002 70.528 90.1026 70.9297 90.1534 71.3395L90.0745 70.7417C90.154 71.3368 90.154 71.9399 90.0745 72.535L90.1534 71.9373C90.0619 72.6006 89.8837 73.249 89.6233 73.8659L89.8488 73.3245C89.5601 74.0006 89.1807 74.6343 88.721 75.2081L89.0707 74.7569C88.6311 75.3243 88.1235 75.8357 87.5594 76.2795L88.0104 75.9299C87.4146 76.3871 86.7627 76.7661 86.0705 77.0577L86.6006 76.8322C85.8005 77.1586 84.9634 77.3858 84.1081 77.5089L84.7059 77.4186C83.7478 77.5484 82.7766 77.5484 81.8185 77.4186L82.4163 77.4976C82.1091 77.4614 81.8041 77.4087 81.5027 77.3397C81.2023 77.2847 80.9078 77.2017 80.623 77.0916L81.1531 77.3172L80.9276 77.193L81.3899 77.5427L81.2997 77.4525L81.6493 77.9036C81.6055 77.8436 81.5677 77.7794 81.5365 77.7119L81.7622 78.2532C81.6631 77.9461 81.6024 77.6279 81.5817 77.3059L81.6606 77.9036C81.5422 76.892 81.5422 75.8701 81.6606 74.8584C81.6831 74.5564 81.6166 74.2544 81.4689 73.99C81.3797 73.7102 81.2205 73.4579 81.0065 73.2568C80.8077 73.0455 80.5597 72.8867 80.2846 72.7944C80.0143 72.6517 79.7101 72.5854 79.4049 72.6027C78.8092 72.6022 78.2376 72.8374 77.8147 73.2568L77.465 73.7193C77.2669 74.0629 77.1583 74.4507 77.1491 74.8472L77.1041 74.8246Z" fill="#0000FF"/>
<path d="M84.7722 68.8921C83.86 69.416 83.0865 70.1508 82.5165 71.035C82.237 71.4811 82.0099 71.9579 81.8398 72.4561C81.67 72.9603 81.5602 73.4827 81.5127 74.0126C81.4676 74.3532 81.4676 74.6983 81.5127 75.0389C81.5258 75.5621 81.6692 76.0739 81.93 76.5277C82.1641 76.915 82.4956 77.2343 82.8913 77.4539C83.287 77.6735 83.7332 77.7858 84.1857 77.7796C84.746 77.744 85.2887 77.5696 85.7647 77.272L86.34 76.945C86.8464 76.6221 87.3324 76.268 87.7949 75.8848C88.3014 75.4988 88.7179 75.0074 89.0159 74.4446C89.3138 73.8818 89.486 73.2611 89.5206 72.6253C89.5092 71.9942 89.3563 71.3738 89.0733 70.8096C88.7902 70.2455 88.3842 69.7521 87.8851 69.3657C87.3539 68.8594 86.7189 68.4745 86.0241 68.2379C85.4919 68.0968 84.9323 68.0968 84.4001 68.2379C83.8752 68.3995 83.3934 68.6771 82.9903 69.05C82.4723 69.5723 82.0858 70.2101 81.8624 70.911C81.7124 71.2721 81.6101 71.6513 81.5579 72.0388C81.3648 73.0912 81.3116 74.1644 81.3999 75.2306C81.411 75.773 81.5668 76.3025 81.8511 76.7645C82.0842 77.1329 82.3963 77.445 82.7647 77.6781C82.9916 77.8201 83.2387 77.9266 83.4977 77.9939C84.1783 78.1865 84.9034 78.1508 85.5618 77.8923C86.0706 77.6971 86.555 77.4435 87.0054 77.1367C87.4689 76.8112 87.8928 76.4327 88.2686 76.0088C88.7767 75.453 89.1611 74.7957 89.3964 74.0802C89.5339 73.5361 89.5339 72.9664 89.3964 72.4223C89.2649 71.8914 89.0011 71.4024 88.6295 71.0011C88.3994 70.7365 88.1338 70.505 87.8401 70.3132C87.6739 70.1973 87.5005 70.0918 87.3212 69.9973C86.8025 69.7257 86.2482 69.5283 85.6746 69.4109C85.3025 69.3379 84.9255 69.2927 84.5467 69.2756C84.1683 69.2821 83.7911 69.3198 83.4189 69.3883C82.8488 69.4806 82.2992 69.6714 81.7947 69.9522C81.4793 70.1356 81.1812 70.347 80.9037 70.5838C80.7611 70.7079 80.629 70.8437 80.509 70.9899C80.0262 71.5327 79.6784 72.182 79.4939 72.8847C79.4041 73.2537 79.3624 73.6328 79.3699 74.0126C79.3786 74.5888 79.5173 75.1555 79.7759 75.6705C80.0839 76.2765 80.5673 76.7756 81.1631 77.1029C81.7707 77.4224 82.4401 77.6071 83.1256 77.6442C83.6493 77.6655 84.1733 77.6124 84.682 77.4863C85.2094 77.352 85.7201 77.159 86.2046 76.9111C86.6805 76.6577 87.1237 76.3472 87.5243 75.9863C87.9478 75.6271 88.3265 75.2181 88.6521 74.7682C88.7627 74.6187 88.8608 74.4602 88.9454 74.2945C89.1316 73.9365 89.2755 73.558 89.374 73.1667C89.6008 72.4319 89.6008 71.6458 89.374 70.911C89.204 70.4208 88.9396 69.9685 88.5957 69.58C88.3625 69.3161 88.0883 69.0914 87.7837 68.9146C87.408 68.694 86.9925 68.5495 86.5609 68.4895C86.1294 68.4295 85.6902 68.4552 85.2686 68.565C84.982 68.6314 84.7175 68.7713 84.5016 68.971C84.2599 69.13 84.0621 69.3472 83.9263 69.6026C83.6405 70.1343 83.5603 70.7525 83.7008 71.3395C83.8563 71.909 84.2288 72.395 84.7385 72.6929C85.2695 72.9808 85.8884 73.0613 86.4753 72.9185H86.5881L85.9904 72.9975H86.2498L85.652 72.9185C85.7375 72.929 85.8211 72.9518 85.9001 72.9862L85.37 72.7606L85.6294 72.9185L85.1782 72.5689C85.2693 72.6469 85.3525 72.7338 85.4265 72.8283L85.0768 72.3659C85.1441 72.4649 85.2008 72.5707 85.246 72.6816L85.0205 72.1403C85.0624 72.2457 85.0926 72.3554 85.1106 72.4674L85.0316 71.8696C85.0484 72.0233 85.0484 72.1783 85.0316 72.332L85.1106 71.723C85.0875 71.9289 85.0343 72.1303 84.9527 72.3208L85.1782 71.7794C85.0526 72.0476 84.8976 72.3011 84.7159 72.535L85.0768 72.0726C84.8521 72.3613 84.5905 72.6191 84.2986 72.8396L84.7609 72.4899C84.4601 72.7141 84.1347 72.9033 83.791 73.0539L84.3211 72.8283C83.9621 72.9824 83.5818 73.0813 83.1932 73.1215L83.791 73.0426C83.5474 73.0707 83.3014 73.0707 83.0579 73.0426L83.6557 73.1215C83.4698 73.0954 83.288 73.0461 83.1143 72.9749L83.6444 73.2005C83.5223 73.1546 83.4082 73.0899 83.3061 73.0088L83.7571 73.3584C83.6716 73.2943 83.5957 73.2183 83.5316 73.1328L83.8813 73.5952C83.8179 73.5077 83.7649 73.4131 83.7234 73.3132L83.9489 73.8547C83.907 73.7492 83.8768 73.6395 83.8587 73.5275L83.9376 74.1253C83.9151 73.9531 83.9151 73.7787 83.9376 73.6065L83.8587 74.2043C83.8873 74.0177 83.9404 73.8356 84.0166 73.6629L83.791 74.2043C83.8703 74.0157 83.9726 73.8376 84.0955 73.6742L83.746 74.1366C83.8742 73.9764 84.0177 73.829 84.1746 73.6967L83.7234 74.0577C83.9132 73.9164 84.1173 73.7954 84.3323 73.6967L83.791 73.9223C84.074 73.8093 84.3693 73.7298 84.6708 73.6855L84.0617 73.7644C84.3838 73.725 84.7095 73.725 85.0316 73.7644L84.434 73.6855C84.788 73.7288 85.1337 73.8238 85.4602 73.9674L84.9189 73.7418C85.1958 73.855 85.4574 74.0028 85.6971 74.1817L85.2347 73.8321C85.3469 73.918 85.4491 74.0164 85.5392 74.1253L85.1895 73.6742C85.2375 73.7416 85.279 73.8133 85.3136 73.8885L85.0881 73.3471C85.0918 73.4185 85.0918 73.49 85.0881 73.5614L85.0092 72.9636C85.021 73.0572 85.021 73.152 85.0092 73.2456L85.0881 72.6478C85.0701 72.7721 85.036 72.8934 84.9866 73.0088L85.2121 72.4674C85.1174 72.6715 85.0002 72.8645 84.8625 73.0426L85.2121 72.5802C84.965 72.8949 84.681 73.1789 84.3662 73.4261L84.8287 73.0651C84.5176 73.3105 84.1765 73.5151 83.8136 73.6742L84.3549 73.4486C84.2059 73.5071 84.0509 73.5487 83.8926 73.5727L84.4903 73.4937C84.3928 73.505 84.2944 73.505 84.197 73.4937L84.7948 73.5727H84.6143L85.1558 73.7983L85.0316 73.7306L85.4941 74.0802L85.3813 73.9787L85.7422 74.4299C85.7057 74.3853 85.6754 74.336 85.652 74.2833L85.8775 74.8246C85.8711 74.742 85.8711 74.6591 85.8775 74.5765L85.9565 75.1742C85.9227 74.7614 85.9227 74.3465 85.9565 73.9336C85.9679 73.5148 86.0018 73.0968 86.058 72.6816L85.9791 73.2794C86.0269 72.8534 86.1331 72.4359 86.2948 72.0388L86.0693 72.5689C86.1569 72.3541 86.2747 72.1528 86.419 71.9711L86.0693 72.4223C86.1477 72.3176 86.2386 72.2229 86.34 72.1403L85.8888 72.4899C85.982 72.4167 86.0844 72.3561 86.1933 72.3095L85.652 72.5463C85.7164 72.5172 85.7849 72.4982 85.8551 72.4899L85.2573 72.5689H85.4715L84.8625 72.4786C84.9405 72.4907 85.0163 72.5135 85.0881 72.5463L84.5467 72.3208C84.7799 72.4235 84.9965 72.5604 85.1895 72.7268L84.7272 72.3772C84.9859 72.5665 85.2173 72.7904 85.4152 73.0426L85.0655 72.5802C85.1771 72.7249 85.2682 72.8843 85.3362 73.0539L85.1106 72.5125C85.1653 72.6386 85.2031 72.7713 85.2234 72.9072L85.1445 72.3095C85.1558 72.422 85.1558 72.5353 85.1445 72.6478L85.2234 72.05C85.2017 72.1893 85.1639 72.3256 85.1106 72.4561L85.3362 71.9147C85.263 72.09 85.1641 72.2534 85.0429 72.3997L85.4039 71.9486C85.1576 72.2362 84.8816 72.4971 84.5806 72.7268L85.0316 72.3772C84.5033 72.796 83.9281 73.1518 83.3174 73.4374L83.8587 73.2005H83.7234L84.3211 73.1215H84.1068L84.7046 73.2005L85.2347 73.4261L85.6859 73.7757L86.0354 74.2268L85.9678 74.114L86.1933 74.6442C86.1641 74.5634 86.1416 74.4804 86.1257 74.396L86.2159 74.9938C86.1709 74.6532 86.1709 74.3081 86.2159 73.9674L86.137 74.5652C86.193 74.1784 86.2952 73.7998 86.4414 73.4374L86.2159 73.9787C86.3631 73.6205 86.5565 73.283 86.7911 72.9749L86.4414 73.4374C86.6613 73.1554 86.9152 72.9015 87.1971 72.6816L86.746 73.0313C86.8989 72.9131 87.0611 72.8075 87.231 72.7155C87.4864 72.5797 87.7035 72.3819 87.8625 72.1403C88.0549 71.9208 88.1906 71.6575 88.2574 71.3734C88.3966 70.7826 88.3164 70.1613 88.0318 69.6252C87.7342 69.1221 87.2531 68.7541 86.6897 68.5988C86.1034 68.4457 85.4805 68.5266 84.9527 68.8244L84.7722 68.8921Z" fill="#0000FF"/>
<path d="M50.2728 87.0731C49.8845 88.3674 49.6572 89.7046 49.5961 91.0545C49.5961 91.3026 49.5961 91.562 49.5961 91.8101C49.6417 92.2307 49.7094 92.6486 49.799 93.062C49.8534 93.289 49.9251 93.5115 50.0134 93.7275C50.151 94.1187 50.3247 94.4963 50.5321 94.8554C50.7434 95.2059 50.989 95.5346 51.2653 95.8366C51.5517 96.1431 51.8692 96.419 52.2126 96.6599C52.401 96.7974 52.6011 96.9182 52.8104 97.0208C53.1743 97.2092 53.5512 97.3713 53.9383 97.5058C54.5863 97.6963 55.251 97.8247 55.9233 97.8893C56.3745 97.8893 56.8369 97.9795 57.2993 97.9908C58.3573 98.019 59.4154 97.9397 60.4573 97.754C61.4728 97.5835 62.4525 97.2442 63.3559 96.7502C63.5251 96.6599 63.6943 96.5471 63.8635 96.4343C64.1766 96.2136 64.4777 95.9764 64.7657 95.7238C65.2021 95.3098 65.5814 94.8395 65.8936 94.3252C66.1113 93.9666 66.2962 93.5892 66.4462 93.1974C66.5469 92.9722 66.6263 92.7381 66.6831 92.4981C66.7508 92.25 66.7958 92.0019 66.8409 91.765C66.8409 91.3252 66.965 90.8965 66.9876 90.4567C67.0385 89.3646 66.9932 88.2701 66.8522 87.1859C66.7169 85.8286 66.5023 84.4804 66.2094 83.1482L66.0063 82.3023C65.9425 82.0147 65.8022 81.7498 65.6003 81.5354C65.3299 81.1812 64.9606 80.915 64.5391 80.7705C64.1176 80.626 63.6627 80.6095 63.2318 80.7233C62.6655 80.8851 62.1818 81.256 61.8785 81.7609C61.5905 82.2919 61.5101 82.9109 61.6528 83.4978C61.9482 84.629 62.1706 85.778 62.3183 86.9378L62.2393 86.34C62.3521 87.1747 62.431 88.0205 62.4761 88.8664C62.5413 89.6169 62.5413 90.3717 62.4761 91.1221L62.5551 90.5244C62.4917 91.0472 62.359 91.5592 62.1604 92.047L62.3859 91.5169C62.2309 91.8794 62.03 92.2206 61.7881 92.532L62.1491 92.0695C61.9133 92.373 61.6406 92.6458 61.3371 92.8816L61.7994 92.5207C61.4226 92.8044 61.0138 93.0429 60.5814 93.2312L61.1227 92.9944C60.4367 93.2767 59.716 93.4664 58.9798 93.5583L59.5776 93.4793C58.3533 93.6373 57.1138 93.6373 55.8895 93.4793L56.4873 93.5583C55.9218 93.4889 55.3682 93.3448 54.8406 93.1297L55.382 93.3666C55.0695 93.2332 54.7741 93.0627 54.5022 92.859L54.9647 93.2087C54.7336 93.032 54.5252 92.8274 54.3443 92.5996L54.7053 93.0507C54.5018 92.7868 54.3312 92.499 54.1977 92.1936L54.4233 92.735C54.2556 92.3103 54.1382 91.8674 54.0736 91.4154L54.1525 92.0244C54.0792 91.41 54.0792 90.7891 54.1525 90.1747L54.0736 90.7838C54.1902 89.9756 54.3635 89.1766 54.5924 88.3928C54.7409 87.8049 54.656 87.1824 54.3556 86.6558C54.0426 86.1643 53.568 85.7974 53.0135 85.6182C52.7277 85.5395 52.4291 85.5179 52.1349 85.5547C51.8406 85.5914 51.5566 85.6858 51.2989 85.8325C51.0412 85.9791 50.8149 86.1751 50.6331 86.4093C50.4512 86.6435 50.3172 86.9112 50.2389 87.1972L50.2728 87.0731Z" fill="#0000FF"/>
<path d="M57.5704 85.7648C56.8985 86.1581 56.2741 86.6273 55.7094 87.1633C55.4959 87.3598 55.2962 87.5709 55.1118 87.7949C54.8066 88.1502 54.5277 88.5271 54.2772 88.9228C54.2095 89.0356 54.1531 89.1483 54.0967 89.2611C53.9569 89.5485 53.84 89.8465 53.747 90.1522C53.747 90.3101 53.747 90.468 53.6794 90.6146C53.6117 90.7612 53.6794 90.9191 53.6794 91.0657C53.6729 91.3831 53.7186 91.6993 53.8147 92.0018C53.9607 92.4569 54.2075 92.8733 54.5366 93.2199C54.744 93.4545 54.9925 93.6494 55.2697 93.7951C55.6828 94.0055 56.123 94.1573 56.5779 94.2462C57.414 94.4194 58.2626 94.525 59.1156 94.5621C59.9499 94.5693 60.7836 94.509 61.6082 94.3816C62.2286 94.2976 62.8401 94.1579 63.4354 93.9643C64.0836 93.7642 64.6963 93.4636 65.2512 93.0733C65.4908 92.9023 65.7205 92.7178 65.9392 92.5207C66.1464 92.2968 66.3386 92.0594 66.5144 91.8101C66.7563 91.4653 66.9428 91.0847 67.067 90.6822C67.1433 90.3789 67.1924 90.0694 67.2137 89.7574C67.2249 89.611 67.2249 89.4639 67.2137 89.3175C67.1886 88.9903 67.1357 88.6658 67.0557 88.3476C66.9639 88.0326 66.8432 87.7267 66.6949 87.434C66.5722 87.1501 66.417 86.8814 66.2324 86.6332C65.972 86.2298 65.6736 85.8521 65.3414 85.5053C65.1032 85.2975 64.8547 85.1018 64.597 84.9189C64.4798 84.8295 64.3554 84.7503 64.2248 84.682C63.6662 84.3809 63.0435 84.2184 62.409 84.2083C62.0954 84.2027 61.7829 84.2484 61.4841 84.3437C61.2465 84.4162 61.0162 84.5106 60.7961 84.6256C60.7286 84.6568 60.6645 84.6946 60.6044 84.7384C60.2125 85.0082 59.8562 85.3266 59.5442 85.6858C59.0325 86.2684 58.5898 86.9079 58.2247 87.5919C58.0063 88.0136 57.8106 88.4465 57.6382 88.8889C57.452 89.3247 57.3487 89.7913 57.3336 90.2649C57.3283 90.7578 57.4611 91.2422 57.7171 91.6635C57.9327 92.0222 58.2353 92.3209 58.5968 92.5319H58.6757C58.8678 92.6309 59.0678 92.7139 59.2735 92.78C59.5064 92.8342 59.7449 92.8607 59.9841 92.859C60.108 92.8658 60.2322 92.8658 60.3562 92.859C60.4838 92.8699 60.6122 92.8699 60.7398 92.859C61.034 92.7796 61.3179 92.6661 61.5857 92.5207C62.2408 92.1705 62.8538 91.7467 63.4128 91.2575C63.9728 90.7705 64.4759 90.2219 64.9128 89.6221C65.0836 89.4044 65.2382 89.1744 65.3753 88.9341C65.601 88.5943 65.7536 88.2113 65.8235 87.8094C65.8934 87.4075 65.879 86.9954 65.7813 86.5994C65.6118 86.0275 65.2437 85.5349 64.7433 85.2103C64.2429 84.8857 63.6431 84.7503 63.0518 84.8287C62.5613 84.8669 62.077 84.9615 61.6082 85.1106C61.1496 85.2656 60.7075 85.4659 60.2886 85.7084C59.7888 86.0175 59.4196 86.4989 59.2509 87.0618C59.172 87.3574 59.172 87.6686 59.2509 87.9641C59.2643 88.26 59.3536 88.5474 59.5103 88.7987C59.6596 89.0553 59.858 89.2799 60.0942 89.4597C60.3304 89.6394 60.5999 89.7708 60.8869 89.8463C61.174 89.9217 61.4732 89.9397 61.7673 89.8993C62.0613 89.8589 62.3447 89.7608 62.6008 89.6108C62.7851 89.4959 62.9772 89.3942 63.1758 89.3063L62.6345 89.5431C62.9568 89.4099 63.2938 89.3153 63.6383 89.2611L63.0405 89.3401C63.1681 89.3285 63.2965 89.3285 63.4241 89.3401L62.815 89.2611H62.9052L62.3638 89.0355H62.4428L61.9804 88.6747L61.6195 88.2122C61.6228 88.2347 61.6228 88.2575 61.6195 88.2799L61.3939 87.7385C61.3939 87.7385 61.3939 87.7385 61.3939 87.8062L61.315 87.2084C61.3205 87.242 61.3205 87.2763 61.315 87.31L61.4052 86.7122C61.3914 86.7665 61.3725 86.8194 61.3487 86.8701L61.5857 86.3287C61.4098 86.6733 61.198 86.9984 60.954 87.2987L61.3037 86.8363C60.9183 87.3345 60.471 87.7817 59.9728 88.1671L60.4239 87.8175C60.0316 88.1356 59.5993 88.4009 59.1382 88.607L59.6795 88.3814C59.5965 88.4181 59.5095 88.4446 59.4201 88.4604L60.0179 88.3814H59.8713L60.4691 88.4604H60.3675L60.909 88.6859H60.8187L61.2698 89.0355L61.6195 89.4867V89.419L61.845 89.9604V89.8476L61.9239 90.4454V90.2875L61.845 90.8852C61.907 90.5849 62.0055 90.2932 62.1383 90.0168L61.9126 90.5469C62.1823 89.934 62.5231 89.3548 62.9277 88.8212L62.5782 89.2724C62.8006 88.9654 63.0579 88.6853 63.3451 88.4378L62.8827 88.7874C62.9815 88.7165 63.0872 88.656 63.1984 88.607L62.6571 88.8325C62.7499 88.7906 62.849 88.764 62.9503 88.7536L62.3525 88.8325H62.6797L62.0819 88.7536C62.2049 88.7769 62.3257 88.8109 62.4428 88.8551L61.9015 88.6295C62.094 88.7126 62.2758 88.8187 62.4428 88.9454L61.9804 88.5957C62.2333 88.7922 62.4606 89.0196 62.6571 89.2724L62.2962 88.8212C62.5401 89.1231 62.7411 89.4571 62.8939 89.8138L62.6684 89.2837C62.7573 89.4849 62.8181 89.6975 62.8489 89.9153L62.7698 89.3175C62.7925 89.4859 62.7925 89.6566 62.7698 89.8251L62.8489 89.2273C62.8303 89.3867 62.7885 89.5424 62.7248 89.6897L62.9503 89.1484C62.8843 89.3096 62.7971 89.4613 62.6909 89.5995L63.0405 89.1484C62.9035 89.3154 62.7485 89.4667 62.5782 89.5995L63.0405 89.2498C62.7595 89.455 62.457 89.629 62.1383 89.7687L62.6797 89.5431C61.9558 89.8272 61.1971 90.0131 60.4239 90.0957L61.033 90.0168C60.0187 90.1521 58.9908 90.1521 57.9764 90.0168L58.5742 90.0957C58.0815 90.0525 57.5963 89.9464 57.1305 89.78L57.672 90.0168C57.5819 89.9747 57.4951 89.9257 57.4125 89.8702L57.8637 90.2198C57.8129 90.1766 57.7674 90.1273 57.7283 90.0732L58.078 90.5243C58.0378 90.4761 58.0036 90.4231 57.9764 90.3665L58.2021 90.9078C58.1744 90.8228 58.1517 90.7362 58.1344 90.6484L58.2247 91.2575C58.2138 91.1676 58.2138 91.0767 58.2247 90.9868L58.1456 91.5845C58.1683 91.4223 58.2099 91.2633 58.2697 91.1108L58.0442 91.6522C58.1679 91.371 58.3312 91.1089 58.5291 90.874L58.1682 91.3251C58.5691 90.8154 59.0312 90.3571 59.5442 89.9604L59.0819 90.31C59.3465 90.1117 59.6213 89.9272 59.9052 89.7574C60.4125 89.4621 60.7847 88.9806 60.9427 88.4152C61.0819 87.8244 61.0018 87.2032 60.7172 86.6671C60.4197 86.164 59.9384 85.7961 59.375 85.6407C58.7887 85.4865 58.1655 85.5674 57.6382 85.8663L57.5704 85.7648Z" fill="#0000FF"/>
<path d="M51.013 77.8134C51.013 73.3922 51.1746 68.9748 51.4979 64.5611C51.5994 63.2979 51.7123 62.0459 51.8476 60.7827H47.3362L47.697 73.6178L47.7987 77.2607C47.8059 77.7566 47.9763 78.2362 48.2836 78.6255C48.5647 79.0081 48.9594 79.2923 49.4114 79.4376C49.8048 79.5278 50.2136 79.5278 50.607 79.4376C51.1699 79.2688 51.6513 78.8996 51.9604 78.3999C54.3316 74.6628 56.1868 70.6223 57.4756 66.3882C57.8215 65.2529 58.126 64.1024 58.3891 62.937L53.9567 62.3392C54.1438 65.7229 54.0797 69.1157 53.7649 72.4899C53.686 73.4486 53.5732 74.396 53.4491 75.3321L53.5281 74.7343C53.4492 75.2983 53.3703 75.8622 53.28 76.4261C53.2011 76.7217 53.2011 77.0328 53.28 77.3284C53.2934 77.6243 53.3828 77.9117 53.5394 78.1631C53.807 78.5839 54.2022 78.908 54.6673 79.0879C55.1269 79.2992 55.6469 79.3392 56.1334 79.2007C56.4172 79.1277 56.6834 78.9982 56.916 78.8199C57.1485 78.6416 57.3428 78.4182 57.4869 78.1631C59.6799 73.0819 60.9773 67.6597 61.3217 62.1362C61.4232 60.6587 61.4457 59.1812 61.4006 57.7037C61.3897 57.1081 61.1517 56.5392 60.7352 56.1134C60.382 55.7707 59.9265 55.5529 59.4381 55.4931C58.945 55.4078 58.4376 55.4998 58.0057 55.7525L57.5432 56.1134C57.2692 56.3891 57.071 56.731 56.968 57.1059C55.5455 60.6282 54.5351 64.3031 53.9567 68.0574C53.765 69.3094 53.607 70.55 53.4943 71.8132L53.5733 72.411C53.6396 72.6976 53.7796 72.9619 53.9793 73.1779C54.2558 73.5628 54.6526 73.8446 55.1072 73.9787C55.5859 74.1027 56.0918 74.07 56.5506 73.8853C57.0094 73.7006 57.3969 73.3736 57.6561 72.9524L62.1676 65.0574L63.442 62.8017L59.235 61.6738C59.4268 64.9897 59.5283 68.3168 59.5283 71.6327C59.5283 72.5914 59.5283 73.5388 59.5283 74.4862C59.5266 74.7831 59.5834 75.0774 59.6957 75.3522C59.8079 75.6271 59.9735 75.877 60.1825 76.0878C60.5388 76.4259 60.9926 76.6429 61.4794 76.7081C62.018 76.7835 62.5656 76.6618 63.0216 76.3655C63.4775 76.0691 63.8111 75.618 63.9608 75.0953C65.2691 70.9823 66.397 66.8168 67.3444 62.5986C67.6151 61.4707 67.8857 60.2188 68.1338 59.012L63.7014 58.4143L62.4833 68.0574C62.4815 68.3543 62.5386 68.6486 62.6508 68.9234C62.7631 69.1983 62.9284 69.4482 63.1375 69.659C63.4938 69.997 63.9477 70.2141 64.4346 70.2793C64.9326 70.36 65.4431 70.2643 65.8781 70.0086L66.3293 69.659C66.6043 69.3821 66.8059 69.0409 66.9158 68.6665C68.0437 66.1062 69.0023 63.5234 69.9384 60.9068C70.8745 58.2902 71.7656 55.6284 72.5664 53.0118C73.0175 51.5005 73.4461 50.0004 73.8521 48.5004L69.4196 47.9026L68.1564 60.0609L67.7956 63.5121C67.7909 64.0629 67.9878 64.5963 68.3493 65.0119C68.7108 65.4274 69.2119 65.6963 69.758 65.7679C70.2511 65.8541 70.7589 65.7622 71.1904 65.5085L71.6527 65.1475C71.9307 64.8748 72.1295 64.5318 72.228 64.155L75.8935 55.4706L76.9312 53.0006L72.4986 52.3915L71.8897 62.655L71.7205 65.5536L71.7994 66.1514C71.8632 66.4389 72.0034 66.7039 72.2054 66.9183C72.4825 67.3049 72.8787 67.5902 73.3332 67.7304C73.7305 67.8204 74.1429 67.8204 74.5401 67.7304C74.8267 67.664 75.091 67.524 75.307 67.3243C75.5513 67.1685 75.7498 66.9505 75.8822 66.6927L80.3035 56.2149L81.5554 53.2599L77.3598 52.1321C77.4669 53.0614 77.4669 53.9999 77.3598 54.9292L77.4387 54.3314C77.4387 54.7149 77.3147 55.0871 77.2244 55.4593C77.084 55.9862 77.1391 56.5461 77.3796 57.0354C77.6201 57.5248 78.0298 57.9104 78.5328 58.121C78.9952 58.3213 79.5113 58.361 79.9989 58.2338C80.5685 58.0783 81.0545 57.7058 81.3524 57.1962C82.5942 54.4596 83.576 51.6124 84.2848 48.6921C84.4653 47.9139 84.6344 47.1131 84.781 46.3236C84.9238 45.7367 84.8434 45.1177 84.5555 44.5867C84.2575 44.0771 83.7715 43.7045 83.202 43.5491C82.9121 43.469 82.6091 43.4477 82.3108 43.4864C82.0125 43.5251 81.725 43.6231 81.4652 43.7746C80.9743 44.0883 80.6075 44.5627 80.4275 45.1168C79.4576 47.8236 78.5892 50.5606 77.8222 53.3276C77.0553 56.0946 76.4048 58.8879 75.8709 61.7076C75.5664 63.3092 75.2957 64.922 75.0589 66.5236C74.9805 66.8192 74.9805 67.1302 75.0589 67.4258C75.0694 67.7274 75.163 68.0201 75.3296 68.2717C75.5286 68.6109 75.8128 68.8922 76.1541 69.0877C76.4954 69.2831 76.8818 69.3859 77.2751 69.3859C77.6684 69.3859 78.0549 69.2831 78.3962 69.0877C78.7375 68.8922 79.0217 68.6109 79.2208 68.2717C81.2382 64.7988 83.0643 61.2181 84.6908 57.5458C85.2209 56.3503 85.7285 55.1434 86.2247 53.9366L81.7922 53.3389L82.2998 57.5232L82.3787 58.121C82.4425 58.4086 82.5828 58.6735 82.7847 58.8879C83.0618 59.2746 83.458 59.5599 83.9126 59.7C84.3098 59.7901 84.7222 59.7901 85.1194 59.7C85.6848 59.542 86.1662 59.1697 86.4615 58.6624L91.9993 46.7409L93.5445 43.4363L89.4165 42.8949C89.5881 43.3386 89.7092 43.8001 89.7775 44.2709L89.6985 43.6732C89.7492 44.1455 89.7492 44.6219 89.6985 45.0943H94.2099C94.1195 43.9435 94.1537 42.7864 94.3115 41.643L94.2325 42.2408C94.2325 41.9926 94.3001 41.7332 94.3452 41.4851C94.4924 40.8984 94.4119 40.2778 94.1197 39.7482C93.8183 39.2463 93.3392 38.8759 92.7775 38.7106C92.1875 38.5568 91.561 38.6377 91.0294 38.9361L90.5782 39.2971C90.3001 39.5715 90.0979 39.9135 89.9917 40.2896L88.4127 44.2145L92.5294 43.6844C92.3306 43.3953 92.1571 43.0897 92.0106 42.7709L92.2474 43.3009C92.0897 42.9408 91.9799 42.5617 91.9205 42.1731L91.6948 41.6317L91.3339 41.1806C90.9838 40.84 90.5326 40.6224 90.0482 40.5603C89.6085 40.4969 89.1598 40.5647 88.7585 40.7553C88.3573 40.946 88.0212 41.2509 87.7925 41.6317L85.6721 45.0153C85.3732 45.5427 85.2922 46.166 85.4464 46.7522C85.5247 47.0382 85.6587 47.3059 85.8406 47.54C86.0225 47.7742 86.2487 47.9703 86.5064 48.1169C86.7641 48.2636 87.0482 48.358 87.3424 48.3948C87.6366 48.4315 87.9352 48.4099 88.2211 48.3312C88.7802 48.1552 89.2593 47.7879 89.5744 47.2936L91.6948 43.91L87.5668 43.3799C87.7376 44.32 88.1236 45.2079 88.6947 45.974C88.903 46.3005 89.1803 46.5777 89.5068 46.7861C89.8917 47.0082 90.3335 47.1116 90.7769 47.0835C91.2203 47.0554 91.6456 46.897 91.9993 46.6281C92.1674 46.5301 92.3073 46.3902 92.4054 46.2221C92.5969 46.0004 92.7357 45.7382 92.8114 45.4552L94.3904 41.5189L90.0369 40.3234C89.7366 41.9061 89.6381 43.5206 89.7436 45.1281C89.7594 45.7259 89.9965 46.2967 90.409 46.7297C90.832 47.1491 91.4037 47.3843 91.9993 47.3838C92.595 47.3843 93.1667 47.1491 93.5897 46.7297L93.9505 46.2672C94.1493 45.9245 94.2544 45.5355 94.2551 45.1394C94.2999 44.5635 94.2772 43.9844 94.1873 43.4138C94.1187 42.8443 93.9863 42.2844 93.7926 41.7445C93.6735 41.3732 93.4775 41.0312 93.2174 40.7408C92.8643 40.398 92.4089 40.1801 91.9205 40.1204C91.5372 40.0725 91.148 40.127 90.7926 40.2783C90.3191 40.4435 89.9195 40.7712 89.6647 41.2031L84.1043 52.9667L82.5592 56.2713L86.7661 57.3992L86.2586 53.2149C86.275 52.9133 86.2086 52.613 86.0668 52.3464C85.9772 52.0701 85.8179 51.8215 85.6043 51.6245C85.2512 51.2818 84.7958 51.064 84.3074 51.0042C83.8107 50.9192 83.2998 51.0109 82.8637 51.2636L82.4126 51.6245C82.1344 51.899 81.9323 52.241 81.826 52.6171C81.6569 53.0456 81.4764 53.4742 81.296 53.9028L81.5215 53.3727C80.1108 56.7166 78.5337 59.9877 76.7958 63.1738C76.2996 64.0761 75.7921 64.9784 75.2845 65.8694L79.4011 67.6063C79.8184 64.7641 80.3373 61.967 80.9802 59.1361C81.623 56.3052 82.3561 53.5644 83.2359 50.8237C83.7208 49.2673 84.2397 47.7334 84.7923 46.1995L80.4388 44.9927C79.8568 48.2096 78.9226 51.3527 77.653 54.3652L77.8898 53.8239C77.7432 54.151 77.6079 54.478 77.4612 54.7938L81.5892 56.5308C81.9467 55.0554 82.0609 53.5315 81.9275 52.0193L81.8373 51.4102C81.7705 51.1261 81.635 50.8628 81.4426 50.6433C81.1661 50.2584 80.7693 49.9766 80.3148 49.8425C79.9175 49.7525 79.5051 49.7525 79.1079 49.8425C78.8213 49.9089 78.557 50.0489 78.341 50.2486C78.0967 50.4044 77.8982 50.6224 77.7658 50.8802L73.3445 61.358L72.0926 64.3129L76.2995 65.4408L76.9086 55.1886L77.0778 52.2787C77.0753 51.6814 76.836 51.1095 76.4124 50.6884C76.0561 50.3503 75.6022 50.1333 75.1153 50.0681C74.6209 49.9872 74.1138 50.083 73.6829 50.3388L73.2205 50.6884C72.9507 50.9674 72.7532 51.3081 72.6453 51.6809L68.991 60.3767L67.9535 62.8467L72.3746 63.4445L73.6491 51.2862L73.9988 47.835C73.9993 47.2393 73.764 46.6676 73.3445 46.2446C72.9914 45.9019 72.536 45.6841 72.0476 45.6243C71.5509 45.5393 71.04 45.6311 70.6039 45.8838C70.1062 46.1925 69.7405 46.6746 69.5775 47.2372C68.8256 49.9215 68.0324 52.5832 67.1978 55.2224C66.3406 57.8729 65.3932 60.5008 64.3894 63.1174C63.8255 64.5724 63.2615 66.0273 62.6299 67.4709L67.0624 68.0687L68.2805 58.4256C68.2809 57.8299 68.0458 57.2582 67.6264 56.8352C67.2732 56.4925 66.8177 56.2747 66.3293 56.2149C65.8312 56.1333 65.3202 56.229 64.8856 56.4856C64.3783 56.7809 64.0061 57.2624 63.8481 57.8278C62.9683 62.061 61.9156 66.2491 60.69 70.3921C60.3516 71.52 59.9907 72.738 59.5621 73.8997L63.9947 74.4975C64.0548 71.1816 64.0135 67.862 63.8706 64.5385C63.8706 63.5911 63.7804 62.6437 63.724 61.685C63.7073 61.1909 63.5378 60.7142 63.239 60.3204C62.9624 59.9331 62.5661 59.6477 62.1111 59.5083C61.6311 59.3889 61.1255 59.4251 60.6674 59.6116C60.2093 59.7981 59.8223 60.1253 59.5621 60.5459L55.0507 68.4409L53.7762 70.6967L57.9831 71.8245C58.0508 71.0914 58.1298 70.3583 58.2313 69.6365L58.1523 70.2342C58.5803 67.0509 59.3131 63.9162 60.3404 60.873C60.6337 60.0158 60.9607 59.1586 61.2991 58.3127L56.8665 57.715C56.9439 60.2405 56.8119 62.768 56.4718 65.2717L56.5507 64.6626C56.1176 67.7925 55.3617 70.8691 54.295 73.8434C54.0017 74.7005 53.6747 75.5351 53.325 76.3585L53.5507 75.8284V75.8961L57.6786 77.6329C58.323 73.6695 58.6362 69.6592 58.6148 65.6438C58.6148 64.516 58.6148 63.4783 58.5133 62.4069C58.5031 61.8078 58.265 61.2352 57.8478 60.8053C57.4914 60.4673 57.0375 60.2502 56.5507 60.185C56.0563 60.1041 55.5493 60.1999 55.1184 60.4557C54.6111 60.751 54.2388 61.2325 54.0808 61.7978C53.4706 64.5302 52.6176 67.2026 51.5318 69.7831L51.7573 69.2417C50.7335 71.6547 49.5113 73.9785 48.1031 76.1893L52.3101 77.3172L51.9491 64.4822L51.8476 60.8391C51.8368 60.2435 51.5988 59.6747 51.1822 59.2489C50.7611 58.8253 50.1892 58.5859 49.5919 58.5834C49.2943 58.5832 48.9994 58.6418 48.7245 58.7561C48.4497 58.8703 48.2001 59.0378 47.9903 59.2489L47.6407 59.7C47.4419 60.0427 47.3369 60.4317 47.3362 60.8279C46.8851 65.2265 46.6144 69.6402 46.5242 74.0689C46.5242 75.3321 46.5242 76.5953 46.5242 77.8585C46.5302 78.4562 46.7642 79.0291 47.1783 79.4601C47.3891 79.6691 47.6391 79.8346 47.9139 79.9468C48.1887 80.0591 48.483 80.116 48.7799 80.1143C49.3756 80.1147 49.9471 79.8795 50.3701 79.4601C50.7873 79.0302 51.0254 78.4576 51.0356 77.8585L51.013 77.8134Z" fill="#0000FF"/>
<path d="M8.04521 42.0151C7.79158 43.554 7.70072 45.1153 7.77439 46.6732C7.86235 48.2272 8.10415 49.7686 8.49624 51.2749C8.59977 51.6525 8.79984 51.9966 9.07669 52.2735C9.35354 52.5503 9.69767 52.7504 10.0753 52.8539C10.4673 52.9556 10.8788 52.9556 11.2709 52.8539C11.6498 52.7466 11.9952 52.5448 12.2747 52.2674C12.512 52.0695 12.7309 51.8506 12.9288 51.6132C13.2462 51.2395 13.5257 50.8353 13.7634 50.4064C13.9907 49.9727 14.1794 49.5198 14.3273 49.053C14.4556 48.5693 14.5386 48.0747 14.5754 47.5755H10.064L10.4137 52.775C10.4331 53.1698 10.541 53.5553 10.7294 53.9028L11.0791 54.3652C11.2779 54.5765 11.5259 54.7354 11.8009 54.8277C11.975 54.931 12.1737 54.9855 12.3761 54.9855C12.5718 55.0393 12.7783 55.0393 12.9739 54.9855C13.1725 54.9835 13.3671 54.929 13.5379 54.8277C13.8176 54.7384 14.0698 54.5792 14.2709 54.3652C15.5533 53.1048 16.5195 51.5589 17.0905 49.8538L12.6581 49.256L12.9401 53.9479C12.9396 54.5436 13.1747 55.1153 13.5942 55.5382L14.0566 55.8991C14.3073 56.0572 14.5951 56.1467 14.8912 56.1585C15.0869 56.2123 15.2934 56.2123 15.489 56.1585C15.7888 56.147 16.0803 56.0576 16.3349 55.8991L16.7861 55.5382C17.0643 55.2638 17.2663 54.9218 17.3725 54.5457L19.1207 50.2937L14.6882 49.6959C15.0513 52.3742 15.2735 55.0697 15.3537 57.7714C15.3537 58.5496 15.3537 59.3165 15.3537 60.0947C15.3535 60.3924 15.4121 60.6872 15.5264 60.962C15.6406 61.2369 15.808 61.4864 16.0191 61.6963L16.4703 62.0459C16.7242 62.2075 17.0156 62.3007 17.3162 62.3166C17.5129 62.3615 17.7172 62.3615 17.914 62.3166C18.2108 62.2993 18.4981 62.2061 18.7486 62.0459L19.2109 61.6963C19.4866 61.4174 19.6849 61.0714 19.7861 60.6925C20.7793 58.0379 21.3539 55.2451 21.4892 52.414H16.9778L17.1244 61.4933V64.0422L17.2034 64.6513C17.2698 64.9379 17.4097 65.2022 17.6094 65.4182C17.8834 65.8056 18.2812 66.0881 18.7373 66.219C19.1307 66.3093 19.5393 66.3093 19.9327 66.219C20.5023 66.0636 20.9883 65.6911 21.2863 65.1814C22.6372 63.0006 23.7274 60.6688 24.5345 58.2338C24.7601 57.5796 24.9517 56.9254 25.1209 56.26L20.6885 55.6623C20.9366 58.3917 21.2749 61.1098 21.726 63.8167C21.8388 64.5235 21.9629 65.234 22.0983 65.9483C22.2087 66.3201 22.4058 66.6603 22.6735 66.9409C22.9524 67.2166 23.2984 67.4149 23.6773 67.5161C24.0604 67.6214 24.4645 67.6236 24.8487 67.5226C25.2329 67.4216 25.5835 67.2209 25.8653 66.9409C27.491 65.0353 28.8251 62.8993 29.8241 60.6023C30.1512 59.8354 30.467 59.0684 30.7264 58.2789L26.3052 57.6698L27.1398 70.2116L27.3653 73.7531L27.4556 74.3509C27.5224 74.635 27.6579 74.8984 27.8503 75.1178C28.1268 75.5027 28.5237 75.7844 28.9782 75.9186C29.3754 76.0086 29.7877 76.0086 30.1849 75.9186C30.469 75.8518 30.7325 75.7162 30.9519 75.5238C31.194 75.3606 31.3917 75.1397 31.5272 74.881C32.34 73.1964 33.0079 71.4456 33.5235 69.6477C34.0192 67.863 34.3699 66.0413 34.5723 64.2002C34.6851 63.2528 34.7528 62.294 34.7754 61.3354H30.264V68.6101V70.7079L30.3428 71.3057C30.4067 71.5932 30.5469 71.8582 30.7489 72.0726C31.0254 72.4598 31.4218 72.7453 31.8767 72.8847C32.2701 72.9749 32.6789 72.9749 33.0723 72.8847C33.6268 72.7055 34.1014 72.3385 34.4144 71.847L37.798 64.9784L38.7793 63.0046L34.6513 62.4632C35.1739 64.64 35.5842 66.8423 35.8807 69.0612L35.8018 68.4634C36.14 70.9804 36.3321 73.5148 36.377 76.054C36.3765 76.6496 36.6116 77.2213 37.0311 77.6442L37.4936 78.0051C37.7449 78.1618 38.0323 78.2511 38.3282 78.2645C38.5238 78.3183 38.7302 78.3183 38.9258 78.2645C39.2255 78.253 39.5171 78.1637 39.7717 78.0051C40.2694 77.6937 40.6379 77.2131 40.8094 76.6517L42.9975 68.5537L43.6065 66.298L39.2642 65.1024C38.6929 68.0824 38.3162 71.0964 38.1364 74.1253C38.1364 74.9486 38.0575 75.7607 38.0462 76.5727H42.5576V74.9712C42.5485 74.5747 42.4398 74.1869 42.2418 73.8433L41.8921 73.3809C41.6952 73.1673 41.4467 73.0081 41.1704 72.9185C40.9963 72.8152 40.7976 72.7606 40.5952 72.7606C40.3985 72.7156 40.1941 72.7156 39.9974 72.7606C39.7988 72.7626 39.6042 72.8171 39.4335 72.9185C39.1537 73.0077 38.9014 73.1669 38.7003 73.3809C38.2146 73.9872 37.7736 74.628 37.3807 75.2983C37.0099 75.9792 36.6932 76.6882 36.4333 77.4186L40.55 76.8773L37.0311 70.6966L36.6701 70.2455L36.2191 69.8958L35.6777 69.659C35.3822 69.58 35.071 69.58 34.7754 69.659C34.5778 69.6576 34.3834 69.7082 34.2115 69.8056C33.8557 69.9575 33.545 70.1983 33.3091 70.5049C33.1072 70.7193 32.9669 70.9842 32.9031 71.2718L30.6474 77.6668H34.9896L34.0423 72.6365L33.5574 70.1214L33.3204 68.8582C33.233 68.3798 33.0774 67.9163 32.8581 67.4822C32.6703 67.1121 32.408 66.7848 32.0878 66.5209C31.7675 66.2569 31.3962 66.062 30.9971 65.9483C30.4672 65.7904 29.9028 65.7904 29.3729 65.9483C29.0233 66.0724 28.6962 66.2416 28.3691 66.3882L28.8993 66.1626C28.8075 66.2094 28.7083 66.24 28.606 66.2529L29.2037 66.1739H28.9443L29.5534 66.2529H29.3053L29.8467 66.4784C29.739 66.4292 29.6369 66.3687 29.5421 66.298L30.0046 66.6476C29.8537 66.5324 29.7207 66.3956 29.6098 66.2416L29.9594 66.704C29.6223 66.1855 29.3173 65.6469 29.0459 65.0911C28.6321 64.378 28.1565 63.7025 27.6248 63.0723C26.6843 61.9356 25.5641 60.9603 24.3088 60.185C23.5235 59.7124 22.6968 59.3123 21.8389 58.9895C21.5432 58.911 21.2322 58.911 20.9365 58.9895C20.6401 58.9997 20.3519 59.0893 20.1019 59.2489C19.5923 59.5468 19.2197 60.0327 19.0643 60.6023C18.9842 60.8922 18.9629 61.1952 19.0016 61.4935C19.0404 61.7918 19.1384 62.0793 19.2899 62.3392L19.6395 62.7903C19.9139 63.0685 20.256 63.2706 20.632 63.3768L20.9365 63.5009L20.4065 63.2753C21.3959 63.6175 22.3362 64.0877 23.2036 64.6738L22.7411 64.3242C23.539 64.9417 24.2553 65.658 24.8728 66.4559L24.5232 65.9934C24.8409 66.4165 25.1345 66.8571 25.4028 67.3131C25.651 67.7642 25.854 68.2379 26.1247 68.6664C26.3449 69.0197 26.6021 69.3486 26.8917 69.6477C27.2346 69.9867 27.6407 70.255 28.0871 70.4372C28.4399 70.6043 28.8247 70.6928 29.215 70.6966C29.5066 70.7044 29.7981 70.6779 30.0835 70.6177C30.5097 70.4915 30.9216 70.3214 31.3128 70.1101L30.7714 70.3357L31.0197 70.2568L30.4219 70.3357H30.6248L30.0272 70.2568H30.1512L29.6098 70.0312L29.7565 70.1101L29.294 69.7605L29.4519 69.9071L29.0909 69.456C29.166 69.552 29.2268 69.6584 29.2714 69.7718L29.0459 69.2304C29.2167 69.7631 29.3374 70.3106 29.4068 70.8658L29.7676 72.7831L30.5008 76.6291L30.9181 78.7947L31.1437 79.336C31.2795 79.5914 31.4773 79.8086 31.7189 79.9676C32.1047 80.2811 32.5865 80.4523 33.0836 80.4526C33.4784 80.4327 33.8638 80.3249 34.2115 80.1368C34.7134 79.8354 35.0838 79.3563 35.2491 78.7947L37.5049 72.3996L33.3769 72.9411L36.9071 79.1217L37.2566 79.5841L37.7191 79.9338L38.2604 80.1593C38.5515 80.2436 38.8605 80.2436 39.1515 80.1593C39.3539 80.1593 39.5526 80.1048 39.7267 80.0015C39.9147 79.9484 40.0857 79.8473 40.2229 79.7082C40.391 79.6102 40.5309 79.4702 40.6289 79.3021C40.825 79.0836 40.9645 78.8202 41.0351 78.5352C41.0929 78.3586 41.1606 78.1854 41.238 78.0164L41.0125 78.5578C41.3733 77.6908 41.8474 76.8754 42.4223 76.1329L42.0613 76.5953L42.1403 76.4938L38.2943 74.9035V76.5051C38.2943 77.1033 38.532 77.6771 38.955 78.1001C39.378 78.5232 39.9518 78.7608 40.55 78.7608C41.1457 78.7613 41.7174 78.5261 42.1403 78.1066C42.5529 77.6736 42.79 77.1029 42.8057 76.5051C42.8507 73.9434 43.0427 71.3865 43.381 68.8469L43.3019 69.4447C43.4485 68.3168 43.6291 67.2792 43.8208 66.1964C43.9051 65.9054 43.9051 65.5965 43.8208 65.3054C43.8104 65.0039 43.7167 64.7111 43.5502 64.4596C43.2488 63.9444 42.7555 63.5697 42.1783 63.4175C41.6012 63.2653 40.9874 63.348 40.4711 63.6475C39.9707 63.9558 39.6012 64.4376 39.4335 65.0009L37.2453 73.0989L36.6251 75.3546L41.0575 75.9524C40.9736 72.0344 40.5662 68.1301 39.8395 64.2791C39.6364 63.2302 39.4222 62.1926 39.1741 61.1662L38.9484 60.6248L38.5876 60.1624L38.1364 59.8128C37.8883 59.6477 37.5996 59.5541 37.3018 59.5421C37.1013 59.497 36.8932 59.497 36.6927 59.5421C36.4941 59.5442 36.2996 59.5987 36.1288 59.7C35.6553 59.8652 35.2557 60.1929 35.0009 60.6248L31.6173 67.4935L30.6361 69.4672L34.843 70.5951V63.3204V61.2226C34.843 60.6244 34.6054 60.0506 34.1824 59.6275C33.7594 59.2045 33.1855 58.9669 32.5873 58.9669C31.99 58.9694 31.4182 59.2087 30.9971 59.6324C30.5786 60.0568 30.3401 60.6265 30.3316 61.2226C30.3068 62.3543 30.2203 63.4839 30.0722 64.6062L30.1512 64.0084C29.7878 66.723 29.0672 69.3776 28.0082 71.9034L28.2338 71.362C28.0646 71.7681 27.8842 72.1628 27.7037 72.5576L31.8993 73.6854L31.076 61.1436L30.8392 57.6022C30.8228 57.0078 30.5856 56.4408 30.1738 56.0119L29.7226 55.6623C29.471 55.4957 29.1782 55.4021 28.8767 55.3916C28.6811 55.3378 28.4745 55.3378 28.2789 55.3916C27.9808 55.4018 27.6916 55.4956 27.4443 55.6623C26.9502 55.9724 26.5823 56.4481 26.4066 57.0044C26.2036 57.5909 25.9894 58.1323 25.7525 58.7413L25.978 58.2C25.1901 60.06 24.1667 61.8112 22.9329 63.4107L23.2824 62.9595C23.0907 63.2076 22.8991 63.4445 22.6961 63.6813L26.4744 64.6738C26.1586 62.9821 25.8879 61.2903 25.6511 59.5759L25.7299 60.1737C25.5269 58.6511 25.3578 57.1285 25.2225 55.5946C25.2388 55.2931 25.1725 54.9928 25.0307 54.7261C24.9411 54.4498 24.7818 54.2012 24.5682 54.0043L24.1059 53.6434C23.8552 53.4853 23.5674 53.3959 23.2713 53.384C23.0757 53.3302 22.8691 53.3302 22.6735 53.384C22.3738 53.3955 22.0822 53.4848 21.8276 53.6434C21.33 53.9548 20.9614 54.4354 20.7899 54.9968C20.4257 56.4053 19.9583 57.785 19.3914 59.1248L19.6169 58.5834C18.9809 60.0592 18.2265 61.4812 17.3612 62.8354L21.5682 63.9633L21.4216 54.884V52.3351C21.4114 51.7361 21.1733 51.1634 20.7561 50.7335C20.3331 50.3141 19.7615 50.0789 19.1659 50.0794C18.869 50.0776 18.5747 50.1345 18.2999 50.2468C18.025 50.359 17.775 50.5245 17.5643 50.7335C17.162 51.1722 16.93 51.7402 16.9102 52.3351C16.9102 53.0231 16.8086 53.7111 16.7184 54.3878L16.7973 53.79C16.5426 55.7194 16.062 57.6122 15.365 59.4293L19.7974 60.0271C19.7974 57.3315 19.6395 54.6247 19.3688 51.9404C19.2786 51.1621 19.1884 50.3952 19.0868 49.6846C19.1056 49.3829 19.0392 49.082 18.8952 48.8162C18.8059 48.5364 18.6467 48.2841 18.4327 48.083L17.9703 47.7334C17.7222 47.5683 17.4334 47.4747 17.1357 47.4627C16.94 47.409 16.7335 47.409 16.5379 47.4627C16.2363 47.4732 15.9436 47.5669 15.692 47.7334L15.2408 48.083C14.9658 48.3599 14.7643 48.7011 14.6544 49.0756L13.0528 53.3953L17.4854 53.9931L17.2034 49.3011C17.1974 48.7034 16.9633 48.1306 16.5492 47.6996L16.0867 47.35C15.8386 47.1849 15.5499 47.0912 15.2521 47.0793C15.0565 47.0255 14.8501 47.0255 14.6544 47.0793C14.3529 47.0898 14.0601 47.1834 13.8085 47.35L13.3574 47.6996C13.0824 47.9765 12.8808 48.3176 12.7709 48.6921C12.7709 48.8839 12.6355 49.0643 12.5678 49.2448L12.7934 48.7146C12.4992 49.4195 12.1205 50.0861 11.6656 50.6997L12.0152 50.2373C11.7498 50.5814 11.4597 50.9056 11.1468 51.2072L14.9927 52.8088L14.6432 47.6093C14.6268 47.015 14.3894 46.448 13.9776 46.0191C13.5565 45.5955 12.9847 45.3562 12.3874 45.3536C11.7901 45.3562 11.2182 45.5955 10.7971 46.0191L10.4363 46.4702C10.2375 46.8129 10.1324 47.2019 10.1317 47.5981C10.1317 47.677 10.1317 47.7447 10.1317 47.8236L10.2106 47.2259C10.1504 47.6131 10.0444 47.9917 9.89477 48.3538L10.1204 47.8236C9.96098 48.1839 9.76036 48.5246 9.52263 48.8387L9.87233 48.3763C9.66868 48.6438 9.43394 48.8861 9.17307 49.0981L12.9401 50.1019C12.7238 49.2782 12.558 48.442 12.4437 47.5981L12.5228 48.1959C12.2916 46.4629 12.2916 44.7069 12.5228 42.9739L12.4437 43.5716C12.4437 43.4588 12.4437 43.3461 12.4437 43.2445C12.5829 42.6537 12.5028 42.0325 12.2182 41.4964C11.9207 40.9933 11.4395 40.6253 10.876 40.47C10.5861 40.3899 10.2831 40.3686 9.98481 40.4073C9.68653 40.4461 9.39905 40.5441 9.1392 40.6956L8.67674 41.0452C8.39882 41.318 8.20002 41.661 8.10152 42.0377L8.04521 42.0151Z" fill="#0000FF"/>
<mask id="path-17-outside-1_10_2" maskUnits="userSpaceOnUse" x="33.3777" y="23.1249" width="22.1843" height="22.9955" fill="black">
<rect fill="white" x="33.3777" y="23.1249" width="22.1843" height="22.9955"/>
<path d="M42.2017 33.547C42.3966 33.5127 42.5511 33.5489 42.6651 33.6557C42.7894 33.7607 42.8651 33.8902 42.8923 34.044C42.9194 34.1979 42.8934 34.3506 42.8144 34.502C42.7437 34.6414 42.611 34.7283 42.4161 34.7626C42.1717 34.8163 41.9255 34.8597 41.6775 34.8929C41.4379 34.914 41.1983 34.9351 40.9588 34.9561C41.1119 35.7647 41.2394 36.5779 41.3413 37.3955C41.4534 38.2114 41.5134 39.0311 41.5211 39.8548C41.5313 40.0328 41.4616 40.1773 41.3119 40.2883C41.1623 40.3993 41.006 40.4428 40.8431 40.4186C40.6596 40.3981 40.5193 40.3223 40.4222 40.1913C40.3372 40.0688 40.2946 39.9177 40.2947 39.7379C40.2803 38.9365 40.2095 38.1451 40.0823 37.3637C39.9653 36.5804 39.8269 35.7956 39.6672 35.0094C39.2665 35.0165 38.8607 35.0246 38.4497 35.0336C38.037 35.0324 37.6312 35.0405 37.2323 35.0579C37.0543 35.0681 36.9149 34.9975 36.8142 34.846C36.7014 34.6861 36.6528 34.5307 36.6685 34.3799C36.6891 34.1964 36.7657 34.0613 36.8985 33.9744C37.0295 33.8773 37.1788 33.8245 37.3466 33.8161C37.6941 33.8077 38.0426 33.8044 38.392 33.8063C38.7396 33.7979 39.0923 33.7886 39.4501 33.7783C39.4308 33.7289 39.4121 33.6528 39.394 33.5502C39.2312 32.627 39.0651 31.7149 38.8957 30.814C38.7365 29.9112 38.6217 28.9901 38.5512 28.0505C38.5428 27.8828 38.579 27.7283 38.6599 27.5871C38.751 27.4441 38.8838 27.3573 39.0582 27.3265C39.212 27.2994 39.3665 27.3356 39.5216 27.4352C39.6869 27.533 39.7738 27.6657 39.7822 27.8335C39.8533 28.8364 39.9747 29.8251 40.1466 30.7997C40.3268 31.7621 40.515 32.7391 40.7109 33.7306C40.9608 33.7077 41.2106 33.6848 41.4604 33.6619C41.7084 33.6287 41.9555 33.5904 42.2017 33.547ZM51.412 30.3205C51.5701 30.3773 51.6893 30.4832 51.7695 30.6383C51.8497 30.7934 51.8512 30.9518 51.7739 31.1135C51.5826 31.528 51.4591 31.9676 51.4036 32.4322C51.3582 32.895 51.2906 33.3512 51.2006 33.8007C51.1058 34.2829 50.9878 34.7532 50.8465 35.2118C50.7155 35.6686 50.57 36.1332 50.4101 36.6056C50.3986 36.6605 50.3811 36.7112 50.3575 36.7577C50.3424 36.7921 50.3292 36.8367 50.3177 36.8916C50.3877 37.0485 50.3882 37.2018 50.3194 37.3514C50.2591 37.489 50.1616 37.5961 50.027 37.6727C49.7331 38.465 49.4321 39.2479 49.1243 40.0214C48.8285 40.8034 48.5336 41.5905 48.2396 42.3828C48.1678 42.5753 48.0516 42.6962 47.8911 42.7457C47.7409 42.7933 47.5918 42.7879 47.444 42.7293C47.298 42.681 47.1806 42.5854 47.0919 42.4424C47.0051 42.3096 46.9975 42.147 47.0694 41.9545C47.37 41.1399 47.6766 40.3296 47.9893 39.5234C48.3038 38.7276 48.6114 37.9223 48.912 37.1078C48.3038 36.3582 47.7153 35.6 47.1464 34.8329C46.5757 34.0556 45.9956 33.2853 45.4061 32.5219C45.2831 32.3638 45.2396 32.2075 45.2759 32.053C45.3205 31.8865 45.3981 31.7564 45.5085 31.6629C45.6274 31.5573 45.7656 31.5012 45.9231 31.4946C46.0909 31.4862 46.2363 31.561 46.3594 31.7192C46.8692 32.3908 47.3738 33.0634 47.8734 33.7369C48.3711 34.4001 48.8791 35.0616 49.3973 35.7212C49.6539 34.9567 49.8631 34.1635 50.0249 33.3417C50.1046 32.8939 50.1732 32.4429 50.2306 31.9885C50.2964 31.5221 50.4259 31.0867 50.6191 30.6825C50.6861 30.5226 50.7929 30.4085 50.9395 30.3404C51.0844 30.262 51.2418 30.2553 51.412 30.3205Z"/>
</mask>
<path d="M42.2017 33.547C42.3966 33.5127 42.5511 33.5489 42.6651 33.6557C42.7894 33.7607 42.8651 33.8902 42.8923 34.044C42.9194 34.1979 42.8934 34.3506 42.8144 34.502C42.7437 34.6414 42.611 34.7283 42.4161 34.7626C42.1717 34.8163 41.9255 34.8597 41.6775 34.8929C41.4379 34.914 41.1983 34.9351 40.9588 34.9561C41.1119 35.7647 41.2394 36.5779 41.3413 37.3955C41.4534 38.2114 41.5134 39.0311 41.5211 39.8548C41.5313 40.0328 41.4616 40.1773 41.3119 40.2883C41.1623 40.3993 41.006 40.4428 40.8431 40.4186C40.6596 40.3981 40.5193 40.3223 40.4222 40.1913C40.3372 40.0688 40.2946 39.9177 40.2947 39.7379C40.2803 38.9365 40.2095 38.1451 40.0823 37.3637C39.9653 36.5804 39.8269 35.7956 39.6672 35.0094C39.2665 35.0165 38.8607 35.0246 38.4497 35.0336C38.037 35.0324 37.6312 35.0405 37.2323 35.0579C37.0543 35.0681 36.9149 34.9975 36.8142 34.846C36.7014 34.6861 36.6528 34.5307 36.6685 34.3799C36.6891 34.1964 36.7657 34.0613 36.8985 33.9744C37.0295 33.8773 37.1788 33.8245 37.3466 33.8161C37.6941 33.8077 38.0426 33.8044 38.392 33.8063C38.7396 33.7979 39.0923 33.7886 39.4501 33.7783C39.4308 33.7289 39.4121 33.6528 39.394 33.5502C39.2312 32.627 39.0651 31.7149 38.8957 30.814C38.7365 29.9112 38.6217 28.9901 38.5512 28.0505C38.5428 27.8828 38.579 27.7283 38.6599 27.5871C38.751 27.4441 38.8838 27.3573 39.0582 27.3265C39.212 27.2994 39.3665 27.3356 39.5216 27.4352C39.6869 27.533 39.7738 27.6657 39.7822 27.8335C39.8533 28.8364 39.9747 29.8251 40.1466 30.7997C40.3268 31.7621 40.515 32.7391 40.7109 33.7306C40.9608 33.7077 41.2106 33.6848 41.4604 33.6619C41.7084 33.6287 41.9555 33.5904 42.2017 33.547ZM51.412 30.3205C51.5701 30.3773 51.6893 30.4832 51.7695 30.6383C51.8497 30.7934 51.8512 30.9518 51.7739 31.1135C51.5826 31.528 51.4591 31.9676 51.4036 32.4322C51.3582 32.895 51.2906 33.3512 51.2006 33.8007C51.1058 34.2829 50.9878 34.7532 50.8465 35.2118C50.7155 35.6686 50.57 36.1332 50.4101 36.6056C50.3986 36.6605 50.3811 36.7112 50.3575 36.7577C50.3424 36.7921 50.3292 36.8367 50.3177 36.8916C50.3877 37.0485 50.3882 37.2018 50.3194 37.3514C50.2591 37.489 50.1616 37.5961 50.027 37.6727C49.7331 38.465 49.4321 39.2479 49.1243 40.0214C48.8285 40.8034 48.5336 41.5905 48.2396 42.3828C48.1678 42.5753 48.0516 42.6962 47.8911 42.7457C47.7409 42.7933 47.5918 42.7879 47.444 42.7293C47.298 42.681 47.1806 42.5854 47.0919 42.4424C47.0051 42.3096 46.9975 42.147 47.0694 41.9545C47.37 41.1399 47.6766 40.3296 47.9893 39.5234C48.3038 38.7276 48.6114 37.9223 48.912 37.1078C48.3038 36.3582 47.7153 35.6 47.1464 34.8329C46.5757 34.0556 45.9956 33.2853 45.4061 32.5219C45.2831 32.3638 45.2396 32.2075 45.2759 32.053C45.3205 31.8865 45.3981 31.7564 45.5085 31.6629C45.6274 31.5573 45.7656 31.5012 45.9231 31.4946C46.0909 31.4862 46.2363 31.561 46.3594 31.7192C46.8692 32.3908 47.3738 33.0634 47.8734 33.7369C48.3711 34.4001 48.8791 35.0616 49.3973 35.7212C49.6539 34.9567 49.8631 34.1635 50.0249 33.3417C50.1046 32.8939 50.1732 32.4429 50.2306 31.9885C50.2964 31.5221 50.4259 31.0867 50.6191 30.6825C50.6861 30.5226 50.7929 30.4085 50.9395 30.3404C51.0844 30.262 51.2418 30.2553 51.412 30.3205Z" fill="#0000FF"/>
<path d="M42.6651 33.6557L41.9815 34.3855L42.0002 34.403L42.0198 34.4196L42.6651 33.6557ZM42.8144 34.502L41.9278 34.0392L41.9223 34.0501L42.8144 34.502ZM42.4161 34.7626L42.2424 33.7778L42.2219 33.7814L42.2016 33.7859L42.4161 34.7626ZM41.6775 34.8929L41.7651 35.889L41.7876 35.887L41.81 35.8841L41.6775 34.8929ZM40.9588 34.9561L40.8711 33.96L39.7707 34.0568L39.9763 35.1422L40.9588 34.9561ZM41.3413 37.3955L40.3489 37.5192L40.3506 37.5317L41.3413 37.3955ZM41.5211 39.8548L40.5211 39.8642L40.5214 39.8882L40.5227 39.9122L41.5211 39.8548ZM40.8431 40.4186L40.9898 39.4294L40.9721 39.4268L40.9544 39.4248L40.8431 40.4186ZM40.4222 40.1913L39.6008 40.7617L39.6097 40.7745L39.619 40.7871L40.4222 40.1913ZM40.2947 39.7379L41.2947 39.738L41.2947 39.729L41.2945 39.7199L40.2947 39.7379ZM40.0823 37.3637L39.0932 37.5114L39.0953 37.5243L40.0823 37.3637ZM39.6672 35.0094L40.6471 34.8102L40.4814 33.9946L39.6492 34.0095L39.6672 35.0094ZM38.4497 35.0336L38.4467 36.0336L38.4592 36.0337L38.4716 36.0334L38.4497 35.0336ZM37.2323 35.0579L37.1886 34.0588L37.1749 34.0595L37.2323 35.0579ZM36.8142 34.846L37.6468 34.2922L37.6392 34.2808L37.6313 34.2696L36.8142 34.846ZM36.6685 34.3799L35.6747 34.2686L35.6739 34.2763L36.6685 34.3799ZM36.8985 33.9744L37.446 34.8112L37.4706 34.7951L37.4942 34.7776L36.8985 33.9744ZM37.3466 33.8161L37.3224 32.8164L37.3094 32.8167L37.2964 32.8173L37.3466 33.8161ZM38.392 33.8063L38.3867 34.8062L38.4014 34.8063L38.4161 34.806L38.392 33.8063ZM39.4501 33.7783L39.4786 34.7779L40.8976 34.7375L40.3817 33.4149L39.4501 33.7783ZM38.8957 30.814L37.9108 30.9876L37.9129 30.9988L38.8957 30.814ZM38.5512 28.0505L37.5524 28.1007L37.5531 28.113L37.554 28.1253L38.5512 28.0505ZM38.6599 27.5871L37.8166 27.0497L37.8039 27.0696L37.7922 27.0901L38.6599 27.5871ZM39.5216 27.4352L38.9812 28.2766L38.9967 28.2866L39.0125 28.2959L39.5216 27.4352ZM39.7822 27.8335L38.7835 27.8836L38.784 27.8939L38.7847 27.9042L39.7822 27.8335ZM40.1466 30.7997L39.1617 30.9733L39.1636 30.9838L40.1466 30.7997ZM40.7109 33.7306L39.7299 33.9245L39.9047 34.8086L40.8022 34.7264L40.7109 33.7306ZM41.4604 33.6619L41.5517 34.6577L41.5723 34.6558L41.5929 34.6531L41.4604 33.6619ZM42.3754 34.5318C42.3714 34.5325 42.3183 34.5414 42.2354 34.522C42.1449 34.5008 42.0543 34.4537 41.9815 34.3855L43.3488 32.9259C42.9449 32.5476 42.4417 32.4893 42.0281 32.5622L42.3754 34.5318ZM42.0198 34.4196C42.0025 34.405 41.9761 34.3778 41.9519 34.3364C41.9275 34.2946 41.9136 34.2525 41.9075 34.2177L43.8771 33.8704C43.8075 33.476 43.6055 33.1411 43.3105 32.8918L42.0198 34.4196ZM41.9075 34.2177C41.9013 34.1828 41.9009 34.1439 41.9073 34.1062C41.9135 34.0696 41.9241 34.0466 41.9279 34.0392L43.7008 34.9648C43.8719 34.6372 43.9461 34.262 43.8771 33.8704L41.9075 34.2177ZM41.9223 34.0501C41.9674 33.961 42.0365 33.8858 42.1143 33.8349C42.1855 33.7883 42.2385 33.7785 42.2424 33.7778L42.5897 35.7474C43.0033 35.6745 43.4563 35.4476 43.7064 34.954L41.9223 34.0501ZM42.2016 33.7859C41.9843 33.8336 41.7655 33.8722 41.545 33.9017L41.81 35.8841C42.0855 35.8472 42.3591 35.799 42.6306 35.7394L42.2016 33.7859ZM41.5898 33.8967C41.4605 33.9081 41.3597 33.917 41.2304 33.9284C41.2219 33.9291 41.1941 33.9316 41.1855 33.9323C41.177 33.9331 41.1492 33.9355 41.1406 33.9363C41.1321 33.937 41.1042 33.9395 41.0957 33.9402C41.0871 33.941 41.0593 33.9434 41.0508 33.9442C41.0422 33.9449 41.0144 33.9474 41.0059 33.9481C40.9973 33.9489 40.9695 33.9513 40.9609 33.9521C40.9524 33.9528 40.9246 33.9553 40.916 33.956C40.9075 33.9568 40.8797 33.9592 40.8711 33.96L41.0465 35.9523C41.151 35.9431 41.1216 35.9457 41.2261 35.9365C41.3231 35.9279 41.3088 35.9292 41.4058 35.9207C41.4514 35.9166 41.7195 35.893 41.7651 35.889L41.5898 33.8967ZM39.9763 35.1422C40.1255 35.9301 40.2497 36.7224 40.349 37.5191L42.3336 37.2719C42.2292 36.4333 42.0984 35.5994 41.9413 34.77L39.9763 35.1422ZM40.3506 37.5317C40.457 38.3055 40.5138 39.0829 40.5211 39.8642L42.521 39.8454C42.5129 38.9793 42.4499 38.1172 42.332 37.2594L40.3506 37.5317ZM40.5227 39.9122C40.5192 39.8509 40.5289 39.7594 40.5758 39.6622C40.6218 39.5668 40.6821 39.5104 40.7162 39.4851L41.9077 41.0915C42.3133 40.7906 42.55 40.3296 42.5194 39.7974L40.5227 39.9122ZM40.7162 39.4851C40.7255 39.4783 40.7585 39.4563 40.8148 39.4406C40.8736 39.4243 40.935 39.4213 40.9898 39.4294L40.6964 41.4078C41.157 41.4761 41.5755 41.3379 41.9077 41.0915L40.7162 39.4851ZM40.9544 39.4248C40.9702 39.4266 41.0163 39.4346 41.0754 39.4665C41.1371 39.4998 41.1888 39.5462 41.2254 39.5956L39.619 40.7871C39.9042 41.1715 40.3126 41.3654 40.7318 41.4124L40.9544 39.4248ZM41.2436 39.621C41.2678 39.6558 41.2819 39.6896 41.2892 39.7153C41.296 39.7396 41.2947 39.7493 41.2947 39.738L39.2947 39.7377C39.2946 40.0788 39.3773 40.4397 39.6008 40.7617L41.2436 39.621ZM41.2945 39.7199C41.2793 38.8713 41.2043 38.0322 41.0693 37.203L39.0953 37.5243C39.2147 38.258 39.2813 39.0017 39.2948 39.7558L41.2945 39.7199ZM41.0713 37.216C40.9518 36.4153 40.8103 35.6133 40.6471 34.8102L38.6872 35.2085C38.8436 35.9779 38.9789 36.7456 39.0932 37.5113L41.0713 37.216ZM39.6492 34.0095C39.2472 34.0167 38.8401 34.0248 38.4279 34.0339L38.4716 36.0334C38.8813 36.0244 39.2858 36.0164 39.6851 36.0092L39.6492 34.0095ZM38.4528 34.0336C38.025 34.0323 37.6036 34.0407 37.1886 34.0589L37.276 36.0569C37.6588 36.0402 38.049 36.0324 38.4467 36.0336L38.4528 34.0336ZM37.1749 34.0595C37.2368 34.056 37.3374 34.0654 37.4463 34.1206C37.5542 34.1752 37.6175 34.2481 37.6468 34.2922L35.9816 35.3999C36.2741 35.8396 36.7484 36.0874 37.2897 36.0562L37.1749 34.0595ZM37.6313 34.2696C37.6232 34.258 37.6354 34.272 37.6477 34.3113C37.6609 34.3538 37.6704 34.4139 37.6632 34.4835L35.6739 34.2763C35.6266 34.7309 35.7863 35.1237 35.9971 35.4225L37.6313 34.2696ZM37.6623 34.4912C37.6603 34.509 37.651 34.5642 37.6113 34.6343C37.5693 34.7082 37.51 34.7693 37.446 34.8112L36.351 33.1376C35.9266 33.4153 35.7224 33.8429 35.6747 34.2686L37.6623 34.4912ZM37.4942 34.7776C37.482 34.7867 37.464 34.797 37.4419 34.8048C37.4201 34.8125 37.4036 34.8145 37.3967 34.8148L37.2964 32.8173C36.9378 32.8353 36.5973 32.9528 36.3028 33.1712L37.4942 34.7776ZM37.3707 34.8158C37.7084 34.8076 38.0471 34.8044 38.3867 34.8062L38.3973 32.8063C38.0381 32.8044 37.6798 32.8077 37.3224 32.8164L37.3707 34.8158ZM38.4161 34.806C38.7652 34.7975 39.1194 34.7882 39.4786 34.7779L39.4216 32.7788C39.0652 32.7889 38.7139 32.7982 38.3678 32.8066L38.4161 34.806ZM40.3817 33.4149C40.3882 33.4316 40.3917 33.4428 40.3928 33.4465C40.3941 33.4505 40.3939 33.4505 40.3927 33.4454C40.39 33.4347 40.3852 33.4127 40.3788 33.3766L38.4092 33.7239C38.43 33.8421 38.4621 33.9973 38.5185 34.1418L40.3817 33.4149ZM40.3788 33.3766C40.2154 32.4497 40.0486 31.5339 39.8784 30.6291L37.9129 30.9988C38.0816 31.8959 38.247 32.8043 38.4092 33.7239L40.3788 33.3766ZM39.8805 30.6403C39.7272 29.7712 39.6164 28.8831 39.5484 27.9758L37.554 28.1253C37.6269 29.0971 37.7457 30.0513 37.9109 30.9876L39.8805 30.6403ZM39.5499 28.0004C39.5501 28.0046 39.5501 28.0181 39.5456 28.0372C39.5411 28.0566 39.534 28.073 39.5276 28.0842L37.7922 27.0901C37.6129 27.4029 37.5347 27.7483 37.5524 28.1007L39.5499 28.0004ZM39.5032 28.1246C39.4778 28.1643 39.4357 28.212 39.3753 28.2515C39.3159 28.2904 39.2625 28.3059 39.2318 28.3113L38.8845 26.3417C38.4479 26.4187 38.0657 26.6587 37.8166 27.0497L39.5032 28.1246ZM39.2318 28.3113C39.1733 28.3216 39.1136 28.3192 39.0611 28.3069C39.0113 28.2952 38.9842 28.2786 38.9812 28.2766L40.062 26.5938C39.7357 26.3843 39.3295 26.2633 38.8845 26.3417L39.2318 28.3113ZM39.0125 28.2959C38.9908 28.2831 38.9302 28.2415 38.8739 28.1556C38.8145 28.0647 38.7876 27.9662 38.7835 27.8836L40.7809 27.7833C40.753 27.2278 40.4364 26.8145 40.0306 26.5745L39.0125 28.2959ZM38.7847 27.9042C38.8582 28.941 38.9838 29.9641 39.1617 30.9733L41.1314 30.626C40.9656 29.6861 40.8484 28.7317 40.7797 27.7628L38.7847 27.9042ZM39.1636 30.9838C39.3446 31.9496 39.5333 32.9299 39.7299 33.9245L41.692 33.5366C41.4966 32.5484 41.3091 31.5747 41.1295 30.6155L39.1636 30.9838ZM40.8022 34.7264C40.8152 34.7252 40.836 34.7233 40.8491 34.7221C40.8621 34.7209 40.8829 34.719 40.8959 34.7178C40.908 34.7167 40.9306 34.7146 40.9427 34.7135C40.9549 34.7124 40.9774 34.7103 40.9896 34.7092C41.0017 34.7081 41.0243 34.706 41.0364 34.7049C41.0486 34.7038 41.0711 34.7017 41.0833 34.7006C41.0954 34.6995 41.118 34.6974 41.1301 34.6963C41.1422 34.6952 41.1648 34.6932 41.1769 34.692C41.2463 34.6857 41.4823 34.6641 41.5517 34.6577L41.3691 32.666C41.357 32.6672 41.3344 32.6692 41.3223 32.6703C41.3102 32.6714 41.2876 32.6735 41.2755 32.6746C41.2633 32.6757 41.2408 32.6778 41.2286 32.6789C41.2165 32.68 41.1939 32.6821 41.1818 32.6832C41.1696 32.6843 41.1471 32.6864 41.1349 32.6875C41.1228 32.6886 41.1002 32.6907 41.0881 32.6918C41.076 32.6929 41.0534 32.695 41.0413 32.6961C41.0291 32.6972 41.0066 32.6993 40.9944 32.7004C40.925 32.7067 40.6891 32.7284 40.6197 32.7347L40.8022 34.7264ZM41.5929 34.6531C41.8547 34.6181 42.1155 34.5777 42.3754 34.5318L42.0281 32.5622C41.7956 32.6032 41.5622 32.6394 41.3279 32.6707L41.5929 34.6531ZM51.412 30.3205L51.0542 31.2543L51.0642 31.2581L51.0742 31.2617L51.412 30.3205ZM51.7739 31.1135L50.8716 30.6823L50.866 30.6944L51.7739 31.1135ZM51.4036 32.4322L50.4106 32.3134L50.4094 32.3241L50.4083 32.3347L51.4036 32.4322ZM51.2006 33.8007L50.2201 33.6045L50.2194 33.6078L51.2006 33.8007ZM50.8465 35.2118L49.8908 34.9174L49.888 34.9267L49.8853 34.9361L50.8465 35.2118ZM50.4101 36.6056L49.4629 36.2849L49.4435 36.3421L49.4312 36.4011L50.4101 36.6056ZM50.3575 36.7577L49.4655 36.3057L49.453 36.3305L49.4418 36.3559L50.3575 36.7577ZM50.3177 36.8916L49.3388 36.6871L49.2727 37.0036L49.4044 37.2989L50.3177 36.8916ZM50.3194 37.3514L49.4109 36.9337L49.4072 36.9416L49.4037 36.9497L50.3194 37.3514ZM50.027 37.6727L49.5323 36.8037L49.2161 36.9837L49.0895 37.3248L50.027 37.6727ZM49.1243 40.0214L48.1952 39.6516L48.192 39.6596L48.189 39.6676L49.1243 40.0214ZM48.2396 42.3828L49.1765 42.7324L49.1772 42.7307L48.2396 42.3828ZM47.8911 42.7457L47.5967 41.79L47.5888 41.7925L47.8911 42.7457ZM47.444 42.7293L47.8122 41.7996L47.7854 41.789L47.758 41.7799L47.444 42.7293ZM47.0919 42.4424L47.9418 41.9154L47.9354 41.905L47.9287 41.8948L47.0919 42.4424ZM47.0694 41.9545L48.0063 42.3041L48.0075 42.3007L47.0694 41.9545ZM47.9893 39.5234L47.0593 39.1559L47.057 39.1618L47.9893 39.5234ZM48.912 37.1078L49.8501 37.454L50.0473 36.9198L49.6885 36.4777L48.912 37.1078ZM47.1464 34.8329L46.3403 35.4248L46.3432 35.4287L47.1464 34.8329ZM45.4061 32.5219L46.1977 31.9107L46.1953 31.9076L45.4061 32.5219ZM45.2759 32.053L44.31 31.7939L44.3059 31.8092L44.3023 31.8247L45.2759 32.053ZM45.5085 31.6629L46.1548 32.4261L46.1638 32.4185L46.1726 32.4106L45.5085 31.6629ZM45.9231 31.4946L45.9651 32.4938L45.9733 32.4934L45.9231 31.4946ZM46.3594 31.7192L47.156 31.1145L47.1485 31.1049L46.3594 31.7192ZM47.8734 33.7369L47.0702 34.3327L47.0735 34.3371L47.8734 33.7369ZM49.3973 35.7212L48.611 36.339L49.7558 37.7961L50.3454 36.0393L49.3973 35.7212ZM50.0249 33.3417L51.0061 33.5349L51.0078 33.5259L51.0094 33.517L50.0249 33.3417ZM50.2306 31.9885L49.2404 31.8488L49.2394 31.856L49.2385 31.8632L50.2306 31.9885ZM50.6191 30.6825L51.5214 31.1136L51.5319 31.0915L51.5414 31.0689L50.6191 30.6825ZM50.9395 30.3404L51.3611 31.2472L51.3888 31.2343L51.4157 31.2197L50.9395 30.3404ZM51.0742 31.2617C51.0395 31.2493 50.9965 31.2263 50.9556 31.1899C50.9152 31.154 50.8921 31.1187 50.8813 31.0978L52.6577 30.1788C52.4665 29.8092 52.1558 29.525 51.7498 29.3793L51.0742 31.2617ZM50.8813 31.0978C50.8569 31.0506 50.8317 30.9758 50.8308 30.8828C50.83 30.7907 50.8533 30.7208 50.8716 30.6824L52.6762 31.5446C52.8844 31.1089 52.8863 30.6206 52.6577 30.1788L50.8813 31.0978ZM50.866 30.6944C50.6297 31.2063 50.4783 31.7475 50.4106 32.3134L52.3965 32.551C52.4399 32.1877 52.5355 31.8497 52.6819 31.5326L50.866 30.6944ZM50.4083 32.3347C50.3662 32.7649 50.3034 33.1881 50.2201 33.6045L52.1812 33.997C52.2778 33.5143 52.3503 33.0252 52.3988 32.5297L50.4083 32.3347ZM50.2194 33.6078C50.1312 34.0565 50.0216 34.4929 49.8908 34.9174L51.8022 35.5062C51.954 35.0135 52.0805 34.5092 52.1818 33.9937L50.2194 33.6078ZM49.8853 34.9361C49.7588 35.377 49.6181 35.8266 49.4629 36.2849L51.3572 36.9263C51.522 36.4397 51.6722 35.9601 51.8078 35.4875L49.8853 34.9361ZM49.4312 36.4011C49.4363 36.3767 49.4464 36.3433 49.4655 36.3057L51.2496 37.2096C51.3157 37.0791 51.3609 36.9444 51.3889 36.8101L49.4312 36.4011ZM49.4418 36.3559C49.3889 36.4765 49.3582 36.5942 49.3388 36.6871L51.2965 37.0962C51.2977 37.0906 51.2974 37.0931 51.2947 37.1021C51.2922 37.1105 51.2858 37.131 51.2733 37.1595L49.4418 36.3559ZM49.4044 37.2989C49.3896 37.2658 49.3709 37.2064 49.3706 37.1281C49.3703 37.0485 49.3891 36.981 49.4109 36.9337L51.228 37.7692C51.4228 37.3455 51.4124 36.8912 51.231 36.4843L49.4044 37.2989ZM49.4037 36.9497C49.4155 36.9228 49.4345 36.8916 49.4615 36.8619C49.4883 36.8324 49.5145 36.8138 49.5323 36.8037L50.5218 38.5418C50.8371 38.3622 51.0856 38.0942 51.2352 37.7532L49.4037 36.9497ZM49.0895 37.3248C48.7982 38.1099 48.5001 38.8855 48.1952 39.6516L50.0534 40.3912C50.3642 39.6103 50.6679 38.8201 50.9646 38.0206L49.0895 37.3248ZM48.189 39.6676C47.8924 40.4516 47.5968 41.2407 47.3021 42.0349L49.1772 42.7307C49.4704 41.9404 49.7646 41.1552 50.0596 40.3752L48.189 39.6676ZM47.3028 42.0331C47.3041 42.0295 47.3222 41.9826 47.3774 41.9252C47.4371 41.863 47.5149 41.8152 47.5967 41.79L48.1856 43.7014C48.7092 43.54 49.0231 43.1435 49.1765 42.7324L47.3028 42.0331ZM47.5888 41.7925C47.6169 41.7836 47.6566 41.7763 47.7032 41.778C47.7497 41.7797 47.7874 41.7898 47.8122 41.7996L47.0757 43.6591C47.4357 43.8016 47.8215 43.8168 48.1934 43.6989L47.5888 41.7925ZM47.758 41.7799C47.7988 41.7934 47.841 41.8159 47.8783 41.8463C47.9146 41.8758 47.9342 41.9031 47.9418 41.9154L46.242 42.9693C46.4418 43.2915 46.7398 43.5497 47.13 43.6788L47.758 41.7799ZM47.9287 41.8948C47.9858 41.9821 48.0158 42.0822 48.0201 42.1746C48.022 42.2167 48.0183 42.2497 48.0144 42.2715C48.0105 42.2929 48.0063 42.3041 48.0063 42.3041L46.1325 41.6048C45.9855 41.9987 45.9445 42.5151 46.2552 42.9899L47.9287 41.8948ZM48.0075 42.3007C48.3062 41.4913 48.611 40.6861 48.9216 39.8851L47.057 39.1618C46.7423 39.9731 46.4337 40.7886 46.1312 41.6083L48.0075 42.3007ZM48.9193 39.8909C49.2367 39.0879 49.5469 38.2756 49.8501 37.454L47.9738 36.7615C47.6758 37.5691 47.371 38.3672 47.0593 39.1559L48.9193 39.8909ZM49.6885 36.4777C49.0894 35.7393 48.5098 34.9925 47.9496 34.2372L46.3432 35.4287C46.9209 36.2074 47.5183 36.9772 48.1354 37.7378L49.6885 36.4777ZM47.9524 34.2411C47.3769 33.4573 46.792 32.6805 46.1977 31.9107L44.6146 33.133C45.1991 33.8901 45.7744 34.654 46.3403 35.4248L47.9524 34.2411ZM46.1953 31.9076C46.1956 31.9081 46.2244 31.9449 46.2448 32.0184C46.267 32.0983 46.2706 32.1912 46.2495 32.2813L44.3023 31.8247C44.1794 32.3486 44.3615 32.8079 44.617 33.1361L46.1953 31.9076ZM46.2417 32.3121C46.2435 32.3057 46.2408 32.3187 46.2264 32.3428C46.2112 32.3682 46.1876 32.3983 46.1548 32.4261L44.8623 30.8998C44.5687 31.1484 44.3971 31.4692 44.31 31.7939L46.2417 32.3121ZM46.1726 32.4106C46.1526 32.4284 46.1206 32.4507 46.0775 32.4682C46.0343 32.4858 45.9945 32.4925 45.9651 32.4937L45.8811 30.4955C45.4914 30.5119 45.134 30.6581 44.8445 30.9152L46.1726 32.4106ZM45.9733 32.4934C45.8862 32.4977 45.7887 32.479 45.7004 32.4336C45.6182 32.3913 45.5783 32.3437 45.5702 32.3334L47.1485 31.1049C46.8691 30.7461 46.4321 30.4678 45.873 30.4959L45.9733 32.4934ZM45.5628 32.3237C46.0704 32.9925 46.5729 33.6621 47.0702 34.3326L48.6765 33.1412C48.1748 32.4647 47.6679 31.7892 47.1559 31.1146L45.5628 32.3237ZM47.0735 34.3371C47.5758 35.0064 48.0882 35.6736 48.611 36.339L50.1837 35.1034C49.6699 34.4495 49.1664 33.7939 48.6732 33.1367L47.0735 34.3371ZM50.3454 36.0393C50.6162 35.2324 50.8362 34.3974 51.0061 33.5349L49.0438 33.1485C48.8899 33.9296 48.6916 34.681 48.4493 35.403L50.3454 36.0393ZM51.0094 33.517C51.0921 33.0525 51.1632 32.5848 51.2227 32.1138L49.2385 31.8632C49.1832 32.301 49.1171 32.7354 49.0404 33.1664L51.0094 33.517ZM51.2208 32.1283C51.2731 31.7577 51.3744 31.4211 51.5214 31.1136L49.7168 30.2514C49.4774 30.7523 49.3197 31.2865 49.2404 31.8488L51.2208 32.1283ZM51.5414 31.0689C51.5339 31.0867 51.5156 31.1219 51.4792 31.1607C51.442 31.2004 51.3997 31.2292 51.3611 31.2472L50.518 29.4336C50.1283 29.6147 49.8525 29.9244 49.6968 30.296L51.5414 31.0689ZM51.4157 31.2197C51.3605 31.2496 51.2883 31.2724 51.2082 31.2757C51.1311 31.279 51.0768 31.263 51.0542 31.2543L51.7698 29.3867C51.3596 29.2296 50.8941 29.2278 50.4634 29.461L51.4157 31.2197Z" fill="#0000FF" mask="url(#path-17-outside-1_10_2)"/>
</svg>
